<?xml version="1.0" standalone="no"?><!DOCTYPE svg PUBLIC "-//W3C//DTD SVG 1.1//EN" "http://www.w3.org/Graphics/SVG/1.1/DTD/svg11.dtd"><svg t="1720791246703" class="icon" viewBox="0 0 1024 1024" version="1.1" xmlns="http://www.w3.org/2000/svg" p-id="4278" xmlns:xlink="http://www.w3.org/1999/xlink" width="200" height="200"><path d="M490.666667 853.333333a42.666667 42.666667 0 1 1 0 85.333334h-192a170.666667 170.666667 0 0 1-170.666667-170.666667V256a170.666667 170.666667 0 0 1 170.666667-170.666667h426.666666a170.666667 170.666667 0 0 1 170.666667 170.666667v277.333333h-85.333333V256a85.333333 85.333333 0 0 0-85.333334-85.333333H298.666667a85.333333 85.333333 0 0 0-85.333334 85.333333v512a85.333333 85.333333 0 0 0 85.333334 85.333333h192z m362.666666-277.226666a42.666667 42.666667 0 1 1 0-85.333334 42.666667 42.666667 0 0 1 0 85.333334zM362.666667 298.666667h298.666666a42.666667 42.666667 0 1 1 0 85.333333H362.666667a42.666667 42.666667 0 1 1 0-85.333333z m0 192h170.666666a42.666667 42.666667 0 1 1 0 85.333333h-170.666666a42.666667 42.666667 0 1 1 0-85.333333z m298.666666 213.333333v-106.666667a42.666667 42.666667 0 1 1 85.333334 0v106.666667h106.666666a42.666667 42.666667 0 1 1 0 85.333333h-106.666666v106.666667a42.666667 42.666667 0 1 1-85.333334 0v-106.666667h-106.666666a42.666667 42.666667 0 1 1 0-85.333333h106.666666z" fill="#272636" p-id="4279"></path></svg>