<?xml version="1.0" standalone="no"?><!DOCTYPE svg PUBLIC "-//W3C//DTD SVG 1.1//EN" "http://www.w3.org/Graphics/SVG/1.1/DTD/svg11.dtd"><svg t="1710211278668" class="icon" viewBox="0 0 1110 1024" version="1.1" xmlns="http://www.w3.org/2000/svg" p-id="4257" xmlns:xlink="http://www.w3.org/1999/xlink" width="216.796875" height="200"><path d="M933.33532 0H693.067163C635.026195 0 587.949845 47.07635 587.949845 105.236499v240.268156c0 58.040968 47.07635 105.117318 105.117318 105.117319h240.268157c58.040968 0 105.117318-47.07635 105.117318-105.117319V105.236499c0.119181-58.160149-46.957169-105.236499-105.117318-105.236499z" fill="" p-id="4258"></path><path d="M980.292489 350.629423c0 11.083799-4.409683 21.690875-12.275605 29.556797-7.865922 7.865922-18.472998 12.275605-29.556797 12.275605H688.061577c-11.083799 0-21.690875-4.409683-29.556797-12.275605-7.865922-7.865922-12.275605-18.472998-12.275606-29.556797V100.230912c0-11.083799 4.409683-21.690875 12.275606-29.556797C666.370701 62.808194 676.977778 58.39851 688.061577 58.39851v-0.11918h250.39851c11.083799 0 21.690875 4.409683 29.556797 12.275605 7.865922 7.865922 12.275605 18.472998 12.275605 29.556797v250.517691zM359.36139 0H120.404221c-58.39851 0-105.832402 47.433892-105.832402 105.832402v238.95717c0 58.39851 47.433892 105.832402 105.832402 105.832402h238.957169c58.39851 0 105.832402-47.433892 105.832403-105.832402V105.832402c0-58.39851-47.433892-105.832402-105.832403-105.832402z" fill="" p-id="4259"></path><path d="M406.914463 350.629423c0 11.083799-4.409683 21.690875-12.275605 29.556797-7.865922 7.865922-18.472998 12.275605-29.556797 12.275605H114.683551c-11.083799 0-21.690875-4.409683-29.556797-12.275605-7.865922-7.865922-12.275605-18.472998-12.275606-29.556797V100.230912c0-11.083799 4.409683-21.690875 12.275606-29.556797C92.992675 62.808194 103.599752 58.39851 114.683551 58.39851v-0.11918H365.082061c11.083799 0 21.690875 4.409683 29.556797 12.275605 7.865922 7.865922 12.275605 18.472998 12.275605 29.556797v250.517691zM359.957294 573.378026H119.689137c-58.040968 0-105.117318 47.07635-105.117318 105.117319v240.268156c0 58.040968 47.07635 105.117318 105.117318 105.117318h240.268157c58.040968 0 105.117318-47.07635 105.117318-105.117318V678.614525c0.119181-58.160149-46.957169-105.236499-105.117318-105.236499z" fill="" p-id="4260"></path><path d="M409.774798 926.1527c0 11.20298-4.409683 22.048417-12.394786 30.03352-7.985102 7.985102-18.711359 12.513966-30.033519 12.513966h-255.046555c-11.20298 0-22.048417-4.528864-30.03352-12.513966-7.865922-7.985102-12.394786-18.711359-12.394785-30.03352v-255.046555c0-11.20298 4.409683-22.048417 12.394785-30.033519 7.985102-7.865922 18.711359-12.394786 30.03352-12.394786h255.046555c11.20298 0 22.048417 4.409683 30.033519 12.394786 7.865922 7.985102 12.394786 18.711359 12.394786 30.033519v255.046555zM1038.571819 783.612663c0 10.368715-4.171322 20.260708-11.441341 27.649907-7.270019 7.270019-17.281192 11.441341-27.649907 11.441341H627.041092c-21.571695 0-39.091248-17.519553-39.091247-39.091248s17.519553-39.091248 39.091247-39.091248h372.55866c10.368715 0 20.260708 4.171322 27.649907 11.441341 7.150838 7.389199 11.32216 17.281192 11.32216 27.649907z" fill="" p-id="4261"></path><path d="M813.201241 1024c-10.368715 0-20.260708-4.171322-27.649906-11.441341-7.270019-7.270019-11.441341-17.281192-11.441341-27.649907V612.350093c0-21.571695 17.519553-39.091248 39.091247-39.091248 21.571695 0 39.091248 17.519553 39.091248 39.091248v372.558659c0 10.368715-4.171322 20.260708-11.441341 27.649907-7.270019 7.389199-17.281192 11.441341-27.649907 11.441341z" fill="" p-id="4262"></path></svg>