<?xml version="1.0" standalone="no"?><!DOCTYPE svg PUBLIC "-//W3C//DTD SVG 1.1//EN" "http://www.w3.org/Graphics/SVG/1.1/DTD/svg11.dtd"><svg t="1709454111748" class="icon" viewBox="0 0 1024 1024" version="1.1" xmlns="http://www.w3.org/2000/svg" p-id="10563" xmlns:xlink="http://www.w3.org/1999/xlink" width="200" height="200"><path d="M540.8 529.792c-2.645333 8.618667-3.84 18.346667-3.626667 29.226667a260.949333 260.949333 0 0 0-41.344 141.525333c0 60.416 21.034667 115.370667 54.869334 159.317333a1131.093333 1131.093333 0 0 1-96.597334 4.138667c-195.114667 0-294.101333-35.882667-294.101333-106.88v-21.504c0-81.578667 160.853333-145.621333 193.066667-157.525333a30.293333 30.293333 0 0 0 14.464-14.762667c3.84-8.704 3.584-19.669333-0.810667-32.512-46.165333-49.536-75.861333-125.397333-75.861333-193.877333 0-122.282667 81.578667-176.938667 162.474666-176.938667 81.066667 0 162.816 54.656 162.816 176.938667 0 69.077333-28.842667 142.677333-75.349333 192.853333z m294.954667 116.906667v-0.042667c15.445333 0 28.032 12.928 28.245333 29.013333v22.442667a28.586667 28.586667 0 0 1-28.16 28.928h-85.973333v88.448a28.586667 28.586667 0 0 1-28.16 28.970667h-21.845334a28.586667 28.586667 0 0 1-28.16-28.970667V727.04h-85.973333a28.586667 28.586667 0 0 1-28.16-28.928v-22.528a28.586667 28.586667 0 0 1 28.16-28.928h85.973333v-88.448a28.586667 28.586667 0 0 1 28.16-28.928h21.802667a28.586667 28.586667 0 0 1 28.16 28.928v88.448h85.930667z" fill="#000000" p-id="10564"></path></svg>