<?xml version="1.0" standalone="no"?><!DOCTYPE svg PUBLIC "-//W3C//DTD SVG 1.1//EN" "http://www.w3.org/Graphics/SVG/1.1/DTD/svg11.dtd"><svg t="1708177733495" class="icon" viewBox="0 0 1024 1024" version="1.1" xmlns="http://www.w3.org/2000/svg" p-id="13727" xmlns:xlink="http://www.w3.org/1999/xlink" width="200" height="200"><path d="M511.701333 511.701333m-85.632 0a85.632 85.632 0 1 0 171.264 0 85.632 85.632 0 1 0-171.264 0Z" fill="#040000" p-id="13728"></path><path d="M512 85.333333C276.736 85.333333 85.333333 276.736 85.333333 512s191.402667 426.666667 426.666667 426.666667 426.666667-191.402667 426.666667-426.666667S747.264 85.333333 512 85.333333z m0 768c-188.202667 0-341.333333-153.130667-341.333333-341.333333s153.130667-341.333333 341.333333-341.333333 341.333333 153.130667 341.333333 341.333333-153.130667 341.333333-341.333333 341.333333z" fill="#040000" p-id="13729"></path><path d="M512 256c-141.184 0-256 114.816-256 256h85.333333c0-94.122667 76.544-170.666667 170.666667-170.666667V256z" fill="#040000" p-id="13730"></path></svg>