<?xml version="1.0" standalone="no"?><!DOCTYPE svg PUBLIC "-//W3C//DTD SVG 1.1//EN" "http://www.w3.org/Graphics/SVG/1.1/DTD/svg11.dtd"><svg t="1708219937479" class="icon" viewBox="0 0 1024 1024" version="1.1" xmlns="http://www.w3.org/2000/svg" p-id="12057" xmlns:xlink="http://www.w3.org/1999/xlink" width="200" height="200"><path d="M170.666667 85.504h682.666666a21.333333 21.333333 0 0 1 21.333334 21.333333v789.333334a21.333333 21.333333 0 0 1-21.333334 21.333333H170.666667a21.333333 21.333333 0 0 1-21.333334-21.333333v-789.333334a21.333333 21.333333 0 0 1 21.333334-21.333333z" fill="#2C3E50" p-id="12058"></path><path d="M213.333333 149.333333h597.333334v597.333334H213.333333V149.333333z" fill="#ECF0F1" p-id="12059"></path><path d="M341.333333 789.504h85.333334v85.333333h-85.333334v-85.333333zM213.333333 789.504h85.333334v85.333333h-85.333334v-85.333333zM725.333333 789.504h85.333334v85.333333h-85.333334v-85.333333zM597.333333 789.504h85.333334v85.333333h-85.333334v-85.333333z" fill="#425C76" p-id="12060"></path><path d="M337.216 352.554667c-10.112 0-19.072-3.2-26.858667-9.664-7.786667-6.464-11.690667-15.36-11.690666-26.752 0-11.093333 3.776-19.968 11.349333-26.666667a39.68 39.68 0 0 1 27.2-10.048c3.776 0 7.786667 0.426667 12.032 1.28 4.266667 0.832 8.32 2.474667 12.16 4.906667l-1.194667 10.368c-0.128 0.597333-0.426667 0.874667-0.981333 0.874666h-0.149333c-0.405333-0.021333-0.832-0.469333-1.28-1.386666a18.56 18.56 0 0 0-8.597334-9.066667 25.557333 25.557333 0 0 0-11.349333-2.624h-1.024c-8.874667 0.405333-15.786667 3.946667-20.821333 10.666667a32.682667 32.682667 0 0 0-6.677334 22.442666c0.448 7.573333 3.136 14.442667 8 20.693334 4.864 6.208 11.477333 9.514667 19.84 9.92l2.261334 0.042666c4.202667 0 7.68-0.64 10.410666-1.92 3.157333-1.514667 5.802667-4.565333 7.936-9.130666 0.426667-0.917333 0.96-1.408 1.578667-1.408 0.149333 0 0.256 0.042667 0.426667 0.064 0.490667 0.213333 0.768 0.576 0.768 1.130666a2.176 2.176 0 0 1-0.192 0.896l-4.288 11.946667a40.746667 40.746667 0 0 1-9.6 2.688 59.093333 59.093333 0 0 1-9.258667 0.746667M405.973333 280.32l6.037334 14.272 7.509333 17.365333c2.602667 5.952 5.12 11.733333 7.509333 17.386667l6.186667 14.229333c0.469333 1.216 1.450667 2.325333 2.901333 3.285334 0.768 0.490667 1.493333 0.917333 2.218667 1.237333 0.768 0.341333 1.365333 0.64 1.813333 0.938667 0.341333 0.213333 0.533333 0.426667 0.64 0.682666a1.002667 1.002667 0 0 1 0.106667 0.384l-0.085333 0.341334c-0.085333 0.213333-0.298667 0.298667-0.597334 0.298666h-16.682666a1.536 1.536 0 0 1-0.853334-0.298666 1.408 1.408 0 0 1-0.618666-0.725334 0.554667 0.554667 0 0 1-0.085334-0.298666c0-0.277333 0.213333-0.597333 0.597334-0.938667a13.504 13.504 0 0 1 1.066666-0.938667 2.858667 2.858667 0 0 0 1.088-2.218666 5.013333 5.013333 0 0 0-0.384-1.813334l-7.317333-16.853333H388.266667c-1.194667 2.794667-2.346667 5.653333-3.562667 8.469333-1.130667 2.773333-2.325333 5.589333-3.498667 8.384a5.333333 5.333333 0 0 0-0.469333 1.770667 3.242667 3.242667 0 0 0 0.085333 1.621333c0.085333 0.426667 0.256 0.789333 0.469334 1.066667 0.234667 0.256 0.426667 0.554667 0.490666 0.832l0.064 0.533333-0.085333 0.341334c-0.213333 0.682667-0.597333 1.024-1.066667 1.024h-12.757333c-0.341333 0-0.576-0.085333-0.682667-0.277334a1.194667 1.194667 0 0 0-0.085333-0.256l0.085333-0.490666c0.213333-0.426667 0.768-0.853333 1.664-1.28l1.6-0.725334a15.744 15.744 0 0 0 1.770667-1.024 7.722667 7.722667 0 0 0 2.666667-3.114666l27.946666-63.189334h3.050667m9.344 42.24l-12.885333-30.016-6.314667 15.04-6.229333 14.997334h25.429333M464.661333 346.090667h21.077334a10.005333 10.005333 0 0 0 7.744-3.498667c2.133333-2.346667 3.754667-4.202667 4.842666-5.504 0.597333-0.725333 1.066667-1.088 1.386667-1.088 0.682667 0 1.024 0.341333 1.024 1.024a4.906667 4.906667 0 0 1-0.085333 1.024l-3.626667 12.693333H451.84c-0.682667 0-1.024-0.341333-1.024-1.024 0-0.853333 0.832-1.514667 2.474667-2.090666 1.642667-0.597333 2.474667-1.962667 2.474666-4.096v-54.826667c0-2.133333-0.832-3.456-2.474666-4.053333-1.642667-0.597333-2.474667-1.301333-2.474667-2.154667 0-0.682667 0.341333-1.024 1.024-1.024h16.725333c0.64 0 1.002667 0.341333 1.002667 1.024 0 0.853333-0.832 1.6-2.474667 2.154667-1.664 0.597333-2.474667 1.92-2.474666 4.053333l0.042666 57.386667M526.4 288.704v54.741333c0 2.176 0.810667 3.562667 2.474667 4.16 1.642667 0.576 2.474667 1.258667 2.474666 2.069334 0 0.682667-0.341333 1.024-1.024 1.024h-16.725333c-0.64 0-1.002667-0.341333-1.002667-1.024 0-0.810667 0.832-1.493333 2.474667-2.069334 1.642667-0.597333 2.474667-1.962667 2.474667-4.096v-54.826666c0-2.133333-0.832-3.477333-2.474667-4.032-1.642667-0.597333-2.474667-1.301333-2.474667-2.154667 0-0.682667 0.341333-1.024 1.024-1.024h16.661334c0.682667 0 1.024 0.341333 1.024 1.024 0 0.853333-0.810667 1.6-2.474667 2.154667-1.621333 0.576-2.432 1.92-2.432 4.053333M573.802667 281.450667c3.221333 0 6.570667 0.554667 10.069333 1.706666a13.76 13.76 0 0 1 8.106667 6.613334c1.493333 2.645333 2.261333 5.845333 2.261333 9.557333a16.234667 16.234667 0 0 1-3.072 9.472 15.36 15.36 0 0 1-6.570667 5.12c4.650667 1.493333 8.064 4.138667 10.261334 7.850667a21.205333 21.205333 0 0 1 2.474666 10.56 18.197333 18.197333 0 0 1-3.349333 10.453333 16.682667 16.682667 0 0 1-7.936 5.973333c-3.413333 1.28-6.570667 1.941333-9.429333 1.941334h-30.933334c-0.682667 0-1.024-0.341333-1.024-1.024 0-0.810667 0.810667-1.536 2.474667-2.133334 1.642667-0.597333 2.474667-1.92 2.474667-4.053333V288.64c0-2.069333-0.832-3.413333-2.474667-3.989333-1.664-0.597333-2.474667-1.301333-2.474667-2.154667 0-0.682667 0.341333-1.024 1.024-1.024l28.117334-0.021333m-15.317334 35.370666v30.293334h11.136c2.389333 0 4.821333-0.341333 7.253334-1.024a14.08 14.08 0 0 0 10.453333-14.250667 14.165333 14.165333 0 0 0-4.266667-10.538667c-3.114667-2.986667-7.232-4.437333-12.373333-4.437333l-12.202667-0.042667m0-4.288h13.610667a15.637333 15.637333 0 0 0 9.386667-4.053333 12.714667 12.714667 0 0 0 3.712-9.536 12.693333 12.693333 0 0 0-3.904-9.557333c-2.773333-2.688-6.506667-3.989333-11.157334-3.989334h-11.648v27.136M662.592 347.178667c0.896 0.768 2.133333 1.194667 3.626667 1.344 0.896 0.085333 1.365333 0.426667 1.365333 1.024v0.128c-0.085333 0.682667-0.426667 1.024-1.024 1.024h-13.162667c-0.277333 0-1.429333-1.28-3.349333-3.84s-4.181333-5.632-6.784-9.173334l-7.893333-10.901333a247.509333 247.509333 0 0 0-6.784-8.981333h-7.893334v25.706666c0 2.133333 0.810667 3.498667 2.474667 4.096 1.642667 0.576 2.474667 1.258667 2.474667 2.069334 0 0.682667-0.341333 1.024-1.002667 1.024h-16.725333c-0.682667 0-1.024-0.341333-1.024-1.024 0-0.810667 0.832-1.493333 2.474666-2.069334 1.642667-0.597333 2.474667-1.962667 2.474667-4.096v-54.826666c0-2.090667-0.832-3.413333-2.474667-4.032-1.642667-0.597333-2.474667-1.301333-2.474666-2.154667 0-0.682667 0.341333-1.024 1.024-1.024h29.098666c3.392 0 6.912 0.597333 10.602667 1.813333a14.762667 14.762667 0 0 1 8.533333 6.976c1.6 2.773333 2.368 6.144 2.368 10.069334a17.493333 17.493333 0 0 1-3.2 10.026666 15.722667 15.722667 0 0 1-6.869333 5.354667c-2.922667 1.237333-5.717333 1.92-8.32 2.090667l22.464 29.376m-41.898667-61.653334v28.821334h11.434667c2.261333 0 4.565333-0.341333 6.912-0.981334a13.568 13.568 0 0 0 9.984-13.568 13.589333 13.589333 0 0 0-4.096-10.069333c-2.944-2.794667-6.869333-4.181333-11.818667-4.181333h-12.416M689.28 346.090667h21.056a10.005333 10.005333 0 0 0 7.744-3.498667c2.133333-2.346667 3.754667-4.202667 4.842667-5.504 0.597333-0.725333 1.066667-1.088 1.386666-1.088 0.682667 0 1.024 0.341333 1.024 1.024 0 0.426667-0.021333 0.768-0.106666 1.024l-3.626667 12.693333H676.266667c-0.597333 0-0.874667-0.341333-0.874667-1.024 0-0.853333 0.810667-1.514667 2.474667-2.090666 1.642667-0.597333 2.474667-1.962667 2.474666-4.096v-54.826667c0-2.133333-0.832-3.498667-2.474666-4.053333-1.664-0.597333-2.474667-1.301333-2.474667-2.154667 0-0.682667 0.341333-1.024 1.024-1.024h45.781333v12.693333c0 0.682667-0.341333 1.024-1.024 1.024-0.341333 0-0.938667-0.661333-1.813333-1.962666a48.64 48.64 0 0 0-4.288-5.290667 6.229333 6.229333 0 0 0-4.757333-1.877333h-21.077334v26.794666h11.306667c2.090667 0 3.477333-0.853333 4.138667-2.517333 0.64-1.706667 1.429333-2.56 2.282666-2.56 0.64 0 0.981333 0.341333 0.981334 1.024v12.544c0 0.682667-0.341333 1.024-0.981334 1.024-0.853333 0-1.664-0.810667-2.432-2.496-0.768-1.685333-2.176-2.496-4.266666-2.496h-11.029334l0.021334 28.714667" fill="#2C3E50" p-id="12061"></path><path d="M508.586667 256.170667c-0.426667 0-0.64-0.213333-0.64-0.618667 0-0.448 0.512-0.853333 1.493333-1.216 0.96-0.341333 1.429333-1.152 1.429333-2.410667v-32.256h-5.909333v-1.386666l11.2-4.778667v38.4c0 1.28 0.469333 2.112 1.429333 2.432 0.96 0.341333 1.450667 0.746667 1.450667 1.216 0 0.426667-0.192 0.64-0.576 0.64h-9.898667" fill="#2C3E50" p-id="12062"></path><path d="M270.229333 469.504H746.666667v21.333333H270.229333v-21.333333zM270.229333 512.170667h186.432v21.333333h-186.432v-21.333333zM270.229333 426.837333H746.666667v21.333334H270.229333v-21.333334zM270.229333 384.170667H746.666667v21.333333H270.229333v-21.333333zM270.229333 640.170667H746.666667v21.333333H270.229333v-21.333333zM270.229333 682.837333h310.72v21.333334H270.229333v-21.333334zM270.229333 597.504H746.666667v21.333333H270.229333v-21.333333zM270.229333 554.837333H746.666667v21.333334H270.229333v-21.333334z" fill="#425C76" p-id="12063"></path><path d="M469.333333 789.333333h85.333334v85.333334h-85.333334v-85.333334z" fill="#7B98B5" p-id="12064"></path></svg>