<?xml version="1.0" standalone="no"?><!DOCTYPE svg PUBLIC "-//W3C//DTD SVG 1.1//EN" "http://www.w3.org/Graphics/SVG/1.1/DTD/svg11.dtd"><svg t="1708177759128" class="icon" viewBox="0 0 1024 1024" version="1.1" xmlns="http://www.w3.org/2000/svg" p-id="15603" xmlns:xlink="http://www.w3.org/1999/xlink" width="200" height="200"><path d="M686.944 240c49.104 0 89.056 41.312 89.056 92.08l0 99.264c0 1.824 0 3.984-0.016 6.08L232 534.416c0-1.184 0-2.336 0-3.376l2.656-198.96c0-50.768 39.952-92.08 89.072-92.08L686.944 240M686.944 208 323.712 208c-66.864 0-121.072 55.552-121.072 124.08L200 530.624c0 27.408 0.112 37.216 26.864 37.216l556.832-99.28c24.064-4.816 24.32-9.808 24.32-37.216l0-99.264C808 263.552 753.792 208 686.944 208L686.944 208z" p-id="15604"></path><path d="M471.84 591.36c-0.032 1.504-0.064 2.8-0.096 3.76-0.112 3.76-0.24 8.016 0.272 12.416l0 171.456-0.448 4.976 0 0.016C470.736 784 469.856 784 468.928 784L285.12 784c-12.832 0-53.12-31.52-53.12-75.952l0-41.008 0-4.064c0-6.72-0.032-19.664 0.704-29.136L471.84 591.36M491.84 555.312l-279.68 49.664c-12.976 0.368-12.16 38.224-12.16 62.064l0 41.008c0 59.632 52.432 107.952 85.12 107.952l183.808 0c34.48 0 32.192-5.424 35.072-35.552L504 604.976C501.92 603.312 509.52 555.664 491.84 555.312L491.84 555.312z" p-id="15605"></path><path d="M776 539.568l0 168.528c0 41.856-41.856 75.904-93.056 75.904l-96.144-0.752c-3.808 0-7.552 0.176-11.12 0.336-0.768 0.032-1.536 0.08-2.272 0.112-0.496-3.488-0.944-8.752-0.944-16.464L572.464 574.72c0.416-0.272 0.864-0.512 1.28-0.752L776 539.568M786.608 505.648c-0.944 0-1.92 0.048-2.928 0.16L564.8 543.024c-10.176 3.52-24.336 13.872-24.336 24.816l0 199.392c0 43.248 11.696 48.592 28.432 48.592 5.504 0 11.552-0.576 17.888-0.576L682.688 816c68.976 0 125.312-48.32 125.312-107.904L808 535.44C809.056 517.408 800.88 505.648 786.608 505.648L786.608 505.648z" p-id="15606"></path><path d="M728 176c61.744 0 112 50.24 112 112l0 448c0 61.744-50.256 112-112 112l-448 0c-61.76 0-112-50.256-112-112L168 288c0-61.76 50.24-112 112-112L728 176M728 128l-448 0c-88.368 0-160 71.632-160 160l0 448c0 88.368 71.632 160 160 160l448 0c88.368 0 160-71.632 160-160L888 288C888 199.632 816.368 128 728 128L728 128z" p-id="15607"></path></svg>