<?xml version="1.0" standalone="no"?><!DOCTYPE svg PUBLIC "-//W3C//DTD SVG 1.1//EN" "http://www.w3.org/Graphics/SVG/1.1/DTD/svg11.dtd"><svg t="1721173499934" class="icon" viewBox="0 0 1024 1024" version="1.1" xmlns="http://www.w3.org/2000/svg" p-id="6101" xmlns:xlink="http://www.w3.org/1999/xlink" width="200" height="200"><path d="M479.968 160l64 0 0 640-64 0 0-640z" fill="#272636" p-id="6102"></path><path d="M543.968 1024l-64 0c0-52.928-43.072-96-96-96l-352 0 0-64 352 0c88.224 0 160 71.776 160 160z" fill="#272636" p-id="6103"></path><path d="M543.968 1024l-64 0c0-88.224 71.776-160 160-160l352 0 0 64-352 0c-52.928 0-96 43.072-96 96z" fill="#272636" p-id="6104"></path><path d="M416.896 800l-384.928 0 0-800 352 0c88.224 0 160 71.776 160 160l-64 0c0-52.928-43.072-96-96-96l-288 0 0 672 320.928 0 0 64z" fill="#272636" p-id="6105"></path><path d="M991.968 800l-384.864 0 0-64 320.864 0 0-672-288 0c-52.928 0-96 43.072-96 96l-64 0c0-88.224 71.776-160 160-160l352 0 0 800z" fill="#272636" p-id="6106"></path></svg>