<?xml version="1.0" standalone="no"?><!DOCTYPE svg PUBLIC "-//W3C//DTD SVG 1.1//EN" "http://www.w3.org/Graphics/SVG/1.1/DTD/svg11.dtd"><svg t="1720834298390" class="icon" viewBox="0 0 1024 1024" version="1.1" xmlns="http://www.w3.org/2000/svg" p-id="4401" xmlns:xlink="http://www.w3.org/1999/xlink" width="200" height="200"><path d="M864.7 0H159.3C97.7 0 47.5 50.2 47.5 111.8v800.4c0 61.7 50.2 111.8 111.8 111.8h705.4c61.7 0 111.8-50.2 111.8-111.8V111.8C976.5 50.2 926.3 0 864.7 0z m22.6 111.8v800.4c0 12.5-10.2 22.7-22.6 22.7h-526V89.2h526c12.5 0 22.6 10.1 22.6 22.6zM249.4 89.2v845.7h-90c-12.5 0-22.7-10.2-22.7-22.7V111.8c0-12.5 10.2-22.7 22.7-22.7h90z" fill="#272636" p-id="4402"></path><path d="M556.3 637.7H441.9c-24.6 0-44.6 20-44.6 44.6s20 44.6 44.6 44.6h114.4c24.6 0 44.6-20 44.6-44.6s-20-44.6-44.6-44.6zM666.4 482.6H441.9c-24.6 0-44.6 20-44.6 44.6s20 44.6 44.6 44.6h224.5c24.6 0 44.6-20 44.6-44.6s-20-44.6-44.6-44.6zM781.9 327.5h-340c-24.6 0-44.6 20-44.6 44.6s20 44.6 44.6 44.6h340c24.6 0 44.6-20 44.6-44.6s-20-44.6-44.6-44.6z" fill="#272636" p-id="4403"></path></svg>