<?xml version="1.0" standalone="no"?><!DOCTYPE svg PUBLIC "-//W3C//DTD SVG 1.1//EN" "http://www.w3.org/Graphics/SVG/1.1/DTD/svg11.dtd"><svg t="1720483435391" class="icon" viewBox="0 0 1024 1024" version="1.1" xmlns="http://www.w3.org/2000/svg" p-id="7382" xmlns:xlink="http://www.w3.org/1999/xlink" width="200" height="200"><path d="M894.4 217.8v-72.6h-68.7v155.6h68.7v-83z m-68.8 145.3h47.6v155.6h-47.6V363.1z m-727-207.5v695.1c0 46.7 37 77.8 79.3 77.8h602.7v-46.7H177.9c-15.9 0-26.4-10.4-26.4-25.9s10.6-25.9 26.4-25.9h602.7V98.5H156.8c-26.5 5.2-52.9 31.1-58.2 57.1z m222 119.3h343.6V319H320.6v-44.1z m0 162.2h343.6v43.7H320.6v-43.7z m0 167.2h343.6v44.1H320.6v-44.1zM204.3 274.9h58.2V319h-58.2v-44.1z m0 162.2h58.2v43.7h-58.2v-43.7z m0 167.2h58.2v44.1h-58.2v-44.1z m621.3-18.2H926v160.8H825.6V586.1z" fill="#272636" p-id="7383"></path></svg>