<?xml version="1.0" standalone="no"?><!DOCTYPE svg PUBLIC "-//W3C//DTD SVG 1.1//EN" "http://www.w3.org/Graphics/SVG/1.1/DTD/svg11.dtd"><svg t="1718454702967" class="icon" viewBox="0 0 1109 1024" version="1.1" xmlns="http://www.w3.org/2000/svg" p-id="17112" xmlns:xlink="http://www.w3.org/1999/xlink" width="216.6015625" height="200"><path d="M423.253 28.928c49.067 0 94.55 25.515 121.43 67.413l6.826 11.776h314.71c72.106 0 131.84 54.358 143.957 125.611l1.707 13.568 0.512 13.056v38.656l4.266 1.621c8.79 3.755 17.238 8.534 25.174 14.08l11.52 8.875 10.666 10.07c23.894 25.002 38.571 57.77 41.814 92.5l0.768 14.934v407.381c0 79.531-58.624 145.067-133.547 151.808l-12.8 0.512h-797.44c-38.912 0-76.203-16.213-103.51-44.8a155.05 155.05 0 0 1-41.983-92.501l-0.683-15.019V181.163c0-40.278 15.36-78.934 42.667-107.52C83.2 48.64 114.773 33.195 148.309 29.61l14.507-0.683h260.437z m0 82.176H162.731a64.768 64.768 0 0 0-46.763 20.395 71.51 71.51 0 0 0-18.859 38.57l-0.853 11.094v667.306c0 18.774 7.083 36.694 19.712 49.835a65.707 65.707 0 0 0 36.352 19.456l10.41 0.853h797.611c33.622 0 61.44-26.282 65.878-60.586l0.597-9.558V441.088a72.107 72.107 0 0 0-19.627-49.75 65.28 65.28 0 0 0-36.437-19.455l-10.41-0.854H685.567a144.213 144.213 0 0 1-121.173-67.413l-6.912-11.776-76.032-144.555a66.048 66.048 0 0 0-58.198-36.181z m330.496 534.87l13.312 13.226v55.637L753.75 728.15H297.9l-13.227-13.312V659.2l13.227-13.227h455.85z m-159.146-455.68l33.024 62.549a66.56 66.56 0 0 0 48.981 35.413l9.13 0.683h246.87v-28.502c0-35.584-25.088-64.853-57.43-69.376l-9.045-0.682-271.616-0.171h0.086z" fill="#272636" p-id="17113"></path></svg>