<?xml version="1.0" standalone="no"?><!DOCTYPE svg PUBLIC "-//W3C//DTD SVG 1.1//EN" "http://www.w3.org/Graphics/SVG/1.1/DTD/svg11.dtd"><svg t="1718446046185" class="icon" viewBox="0 0 1178 1024" version="1.1" xmlns="http://www.w3.org/2000/svg" p-id="1590" xmlns:xlink="http://www.w3.org/1999/xlink" width="230.078125" height="200"><path d="M982.81805 126.942147H618.439272a6.394983 6.394983 0 0 1-6.375663-6.182461V81.926105A78.324049 78.324049 0 0 0 537.294475 0.008501H85.395238A83.076816 83.076816 0 0 0 1.159211 81.346499L0 962.540351l4.636846-28.59388 58.346972-309.123035c2.898028-0.579606 24.536641-151.470287 24.536641-154.368316V131.385791a48.706198 48.706198 0 0 1 49.459686-47.720869h339.842137a48.802799 48.802799 0 0 1 49.652887 47.914071V175.822227A33.404608 33.404608 0 0 0 560.285501 208.66655h372.686459a48.957361 48.957361 0 0 1 49.652888 48.107272v75.928345a6.14382 6.14382 0 0 0 6.375662 6.182461h0.193202l77.667163-2.318423a6.221101 6.221101 0 0 0 6.182461-6.18246v-115.921139a88.872873 88.872873 0 0 0-90.225286-87.520459z m125.967636 199.191156H1051.018319l-69.359481 2.125221H171.176881c-33.037524-2.511625-65.495443 26.661862-71.677904 68.973077L65.688645 610.719697l-12.944527 70.518692L0 957.710304A68.663954 68.663954 0 0 0 70.32549 1023.978555h943.791267a76.256789 76.256789 0 0 0 73.609923-64.529434L1178.531571 388.923919a66.673975 66.673975 0 0 0-69.745885-62.790616z m-621.144098 154.561517a99.441016 99.441016 0 0 1 137.366549 1.932019 91.983423 91.983423 0 0 1-1.932019 132.922905 97.895401 97.895401 0 0 1-164.99442-68.200269 91.558379 91.558379 0 0 1 29.55989-66.461453v-0.193202z m-127.899656 383.119362v-52.744118c0-31.491909 22.218218-55.255743 68.973077-76.314749a290.22789 290.22789 0 0 1 255.219706 0c44.243234 18.35418 68.779875 44.82284 68.779875 76.314749v52.744118H359.741932z" fill="#272636" p-id="1591"></path></svg>