<?xml version="1.0" standalone="no"?><!DOCTYPE svg PUBLIC "-//W3C//DTD SVG 1.1//EN" "http://www.w3.org/Graphics/SVG/1.1/DTD/svg11.dtd"><svg t="1718757478254" class="icon" viewBox="0 0 1024 1024" version="1.1" xmlns="http://www.w3.org/2000/svg" p-id="6101" xmlns:xlink="http://www.w3.org/1999/xlink" width="200" height="200"><path d="M859.989333 725.333333H704v-155.989333a35.968 35.968 0 1 0-72.021333 0V725.333333h-147.968a35.968 35.968 0 1 0 0 72.021334h148.010666v147.968a35.968 35.968 0 1 0 71.978667 0v-147.968h155.989333a35.968 35.968 0 1 0 0-72.021334z m15.104-380.885333L597.12 64a77.44 77.44 0 0 0-14.805333-11.52 60.928 60.928 0 0 0-4.394667-2.261333c-0.938667-0.512-1.92-0.896-2.816-1.28A72.362667 72.362667 0 0 0 546.005333 42.666667h-346.026666C160.256 42.666667 128 74.88 128 114.688v794.666667C128 949.077333 160.213333 981.333333 200.021333 981.333333h211.968a35.968 35.968 0 1 0 0-72.021333H199.978667V114.688H512v240.042667c0 39.765333 32.213333 71.978667 72.021333 71.978666h239.957334v70.656a35.968 35.968 0 1 0 72.021333 0V395.178667c0-19.029333-7.509333-37.205333-20.906667-50.730667z m-291.114666 10.24V153.045333l199.808 201.642667h-199.808z" fill="#272636" p-id="6102"></path></svg>