<?xml version="1.0" standalone="no"?><!DOCTYPE svg PUBLIC "-//W3C//DTD SVG 1.1//EN" "http://www.w3.org/Graphics/SVG/1.1/DTD/svg11.dtd"><svg t="1718578442452" class="icon" viewBox="0 0 1024 1024" version="1.1" xmlns="http://www.w3.org/2000/svg" p-id="7738" xmlns:xlink="http://www.w3.org/1999/xlink" width="200" height="200"><path d="M896 469.333333H128v298.666667a85.333333 85.333333 0 0 0 85.333333 85.333333h384a42.666667 42.666667 0 0 1 0 85.333334H213.333333a170.666667 170.666667 0 0 1-170.666666-170.666667V256a170.666667 170.666667 0 0 1 170.666666-170.666667h117.632a170.666667 170.666667 0 0 1 120.704 50.005334L529.664 213.333333H810.666667a170.666667 170.666667 0 0 1 170.666666 170.666667v128a42.666667 42.666667 0 0 1-85.333333 0v-42.666667z m0-85.333333a85.333333 85.333333 0 0 0-85.333333-85.333333h-281.002667A85.333333 85.333333 0 0 1 469.333333 273.664L391.338667 195.669333A85.333333 85.333333 0 0 0 330.965333 170.666667H213.333333a85.333333 85.333333 0 0 0-85.333333 85.333333v128h768z m0 426.666667v85.333333a42.666667 42.666667 0 0 1-85.333333 0v-85.333333h-85.333334a42.666667 42.666667 0 0 1 0-85.333334h85.333334v-85.333333a42.666667 42.666667 0 0 1 85.333333 0v85.333333h85.333333a42.666667 42.666667 0 0 1 0 85.333334h-85.333333z" fill="#272636" p-id="7739"></path></svg>