<?xml version="1.0" standalone="no"?><!DOCTYPE svg PUBLIC "-//W3C//DTD SVG 1.1//EN" "http://www.w3.org/Graphics/SVG/1.1/DTD/svg11.dtd"><svg t="1708219970313" class="icon" viewBox="0 0 1867 1024" version="1.1" xmlns="http://www.w3.org/2000/svg" p-id="13031" xmlns:xlink="http://www.w3.org/1999/xlink" width="364.6484375" height="200"><path d="M325.72361 0.000693C182.130456-0.291144-10.199555 91.001088 0.423328 319.876446c16.576368 357.517314 382.910822 390.671874 529.305616 393.590248 16.051061 67.067898 188.362846 298.391043 315.901291 310.531482h558.783023c335.10602-22.239839 586.046115-1013.48951 400.014321-1017.22503-307.666002 14.475138-490.022468 21.771075-646.337911 23.05516v309.364132l-48.74233-21.537605-0.291837-287.642304c-179.489163-0.058367-337.437072-8.404919-637.349318-23.164599-37.532122-0.23347-89.833045-6.595527-145.984397-6.77063z m20.313712 126.489655h17.103499c20.372079 183.28305 53.52664 290.453064 120.652905 454.183003-171.200979-20.246224-316.893538-69.986273-343.686042-255.664214-13.836744-96.136734 32.859075-196.41756 205.927814-198.518789z m666.009581 180.131205a86.192372 86.192372 0 0 1 34.78885 7.478335l58.312774 25.158213-41.792949 76.173227h-0.408573a58.12308 58.12308 0 0 0-18.737789 3.100774l0.350205-0.116735c-20.372079 6.653894-34.613748 23.699026-34.613748 43.719076a41.258522 41.258522 0 0 0 3.210212 16.051061l-0.116735-0.350205a44.762396 44.762396 0 0 0 8.813492 13.599626l-0.058368-0.058367-72.087502 131.217421a57.838538 57.838538 0 0 0-17.628807 3.03511l0.350205-0.116735c-20.372079 6.653894-34.613748 23.699026-34.613748 43.719076a41.258522 41.258522 0 0 0 3.210212 16.051061l-0.116735-0.350205c7.478335 18.093923 26.675769 30.761493 49.205621 30.761493a57.594124 57.594124 0 0 0 18.095747-2.860007l-0.350205 0.116735c20.313712-6.653894 34.55538-23.699026 34.55538-43.719077a42.103027 42.103027 0 0 0-3.268579-16.169619l0.116735 0.350205a45.782003 45.782003 0 0 0-12.315541-17.101676l70.22339-127.773739a54.901924 54.901924 0 0 0 5.544912 0.291837 58.312774 58.312774 0 0 0 17.628807-2.684905l-0.350205 0.116735a55.005891 55.005891 0 0 0 16.63656-8.755124l-0.058368 0.058368c27.084341 11.381661 49.263989 20.611021 65.200139 28.485161 23.990864 11.855897 32.45415 19.671669 35.020496 28.426793 2.56817 8.572726-0.23347 25.041479-13.774729 53.989932-10.097576 21.539429-26.850871 52.12582-46.637451 88.198754h-1.16735a57.856778 57.856778 0 0 0-18.737789 3.100773l0.350205-0.116735c-20.372079 6.653894-34.613748 23.699026-34.613748 43.719077a41.258522 41.258522 0 0 0 3.210212 16.051061l-0.116735-0.350205c7.478335 18.095747 26.675769 30.761493 49.205621 30.761493a57.597772 57.597772 0 0 0 18.095747-2.860007l-0.350205 0.116735c20.313712-6.653894 34.55538-23.699026 34.55538-43.719077a41.039644 41.039644 0 0 0-3.210212-16.051061l0.116735 0.350205a46.812554 46.812554 0 0 0-10.681251-15.761047l0.058367 0.058367c19.549462-35.680778 36.359301-66.323713 47.149991-89.380696 14.650241-31.286801 22.239839-54.577254 15.584121-77.048739s-27.259443-37.12355-54.460519-50.606441c-17.920645-8.813492-40.217027-18.154114-66.951164-29.366146 0.058367-0.875512 0.116735-1.926127 0.116735-2.918374a42.227058 42.227058 0 0 0-3.151844-15.992693l0.116735 0.350205a46.252591 46.252591 0 0 0-11.323294-16.284531l41.09254-74.94751 227.596745 98.298155c41.092539 17.80391 58.079304 61.468267 38.121269 98.062861l-156.439475 286.423883c-20.021874 36.479683-69.11076 51.600512-110.203299 33.85497l-321.973335-139.1554c-41.092539-17.745542-58.137672-61.468267-38.121269-98.062861l156.439475-286.31262c13.716361-25.158214 41.267642-40.100292 70.453212-41.267642z" fill="#609926" p-id="13032"></path></svg>