<?xml version="1.0" standalone="no"?><!DOCTYPE svg PUBLIC "-//W3C//DTD SVG 1.1//EN" "http://www.w3.org/Graphics/SVG/1.1/DTD/svg11.dtd"><svg t="1708219850629" class="icon" viewBox="0 0 1067 1024" version="1.1" xmlns="http://www.w3.org/2000/svg" p-id="10990" xmlns:xlink="http://www.w3.org/1999/xlink" width="208.3984375" height="200"><path d="M504.216 41.739a751467.301 751467.301 0 0 0-456.67 790.58c-4.753-10.347-6.393-21.808-4.91-34.374 5.303-15.355 8.578-31.721 9.82-49.104 3.276 0 4.91-1.635 4.91-4.91 4.302 0.643 7.578-0.992 9.822-4.911 132.4-229.042 264.981-458.192 397.745-687.46 11.524-12.448 24.616-15.724 39.283-9.821z" fill="#9F60C4" opacity=".984" p-id="10991"></path><path d="M504.216 41.739l19.642 4.91c0 3.275 1.635 4.91 4.91 4.91l-19.641 19.642a46492.586 46492.586 0 0 1-451.76 785.67c-6.713 6.643-11.623 5.003-14.732-4.911a33.617 33.617 0 0 0 4.91-19.642 751467.301 751467.301 0 0 1 456.671-790.58z" fill="#9A62C5" opacity=".991" p-id="10992"></path><path d="M523.858 41.739c6.545 3.275 6.545 3.275 0 0z" fill="#9763C6" opacity=".012" p-id="10993"></path><path d="M528.768 51.56l14.732 9.82c0 3.276 1.635 4.91 4.91 4.91 1.635 4.911 4.91 8.187 9.82 9.822l-88.387 157.134a312.647 312.647 0 0 0-34.373 31.917c2.244 2.033 3.88 4.488 4.91 7.366a128.133 128.133 0 0 0-17.186 24.552c-6.688 6.998-14.054 11.088-22.097 12.276 2.244 2.033 3.88 4.488 4.91 7.366a488.539 488.539 0 0 0-31.917 49.104l-14.732 4.91v19.642c-6.29-0.589-12.02 1.866-17.186 7.366 4.994 5.156 5.814 10.882 2.455 17.187a1196.623 1196.623 0 0 0-68.746 127.67 116.078 116.078 0 0 1-17.187 14.732l9.821 4.91c-7.464 10.617-12.374 22.073-14.731 34.374-16.19-0.84-17.825 2.43-4.91 9.82-3.668 1.16-7.759 2.8-12.276 4.91 5.877 16.701 0.967 29.797-14.732 39.284-2.848 14.962-1.208 16.602 4.91 4.91-0.648 17.438-4.738 33.809-12.275 49.105 1.67-10.057 0.034-14.967-4.91-14.731-4.705 2.224-8.8 5.494-12.277 9.82a2027.832 2027.832 0 0 1-98.209 171.866c-2.307 5.288-1.487 10.199 2.456 14.731H91.74c-1.68-4.115-4.95-5.755-9.821-4.91 0-3.276-1.635-4.91-4.91-4.91-8.054-4.779-14.6-11.324-19.642-19.643a46492.586 46492.586 0 0 0 451.76-785.669l19.641-19.641z" fill="#9564C6" opacity=".977" p-id="10994"></path><path d="M445.29 61.38c-3.274 0-4.91 1.636-4.91 4.91-12.153-1.212-12.153-4.482 0-9.82 2.981 0.609 4.616 2.244 4.91 4.91z" fill="#A160C3" opacity=".008" p-id="10995"></path><path d="M543.5 61.38c4.895-5.956 9.806-5.136 14.73 2.456a11.918 11.918 0 0 1-9.82 2.455c-3.275 0-4.91-1.635-4.91-4.91z" fill="#9266C6" opacity=".004" p-id="10996"></path><path d="M464.933 51.56A1044012.364 1044012.364 0 0 0 67.188 739.02c-2.244 3.919-5.52 5.554-9.821 4.91-3.276 0-4.91 1.636-4.91 4.91-2.932-1.153-4.567-3.608-4.911-7.365 8.22-1.625 13.13-8.99 14.731-22.097-0.211-4.498-1.846-7.773-4.91-9.82-0.044-8.879 2.41-17.064 7.365-24.553l4.91 9.821c4.11-9.09 8.201-18.09 12.277-27.007-9.129-2.951-10.764-7.042-4.91-12.276 0 3.275 1.635 4.91 4.91 4.91 9.983-8.166 18.984-17.987 27.007-29.462a11748.892 11748.892 0 0 1 294.626-510.685 135.38 135.38 0 0 1 7.366-24.553c0-3.275-1.635-4.91-4.91-4.91 10.989-6.924 22.45-15.11 34.372-24.552 3.276 0 4.91-1.635 4.91-4.91 5.427-5.402 11.973-8.677 19.643-9.821z" fill="#A45EC3" opacity=".979" p-id="10997"></path><path d="M558.23 76.112c15.999 3.226 29.915 13.047 41.74 29.462-1.744 7.17-0.929 13.715 2.455 19.642a1281.829 1281.829 0 0 0-68.746 117.85 881.74 881.74 0 0 1-14.732-9.82 5845.676 5845.676 0 0 0-49.104 0l88.388-157.134z" fill="#8969C7" opacity=".985" p-id="10998"></path><path d="M622.066 149.768c-15.202 35.846-34.029 70.22-56.47 103.12a41.395 41.395 0 0 0-2.455 19.641h-4.91c0-3.275-1.635-4.91-4.91-4.91l-19.642-24.553a1281.829 1281.829 0 0 1 68.746-117.85c6.776-5.922 12.507-4.287 17.186 4.91-1.743 7.17-0.928 13.715 2.455 19.642z" fill="#806DC9" opacity=".963" p-id="10999"></path><path d="M406.007 90.843c3.276 0 4.91 1.635 4.91 4.91a135.38 135.38 0 0 0-7.365 24.553A11748.892 11748.892 0 0 0 108.926 630.99c-8.023 11.475-17.024 21.296-27.007 29.462-3.275 0-4.91-1.635-4.91-4.91-0.005-18.198 8.175-29.654 24.552-34.373 1.163-6.34-0.472-11.25-4.91-14.732a114.968 114.968 0 0 1 12.275-29.462c5.338 11.942 7.793 10.302 7.366-4.91 4.115-1.68 5.755-4.95 4.91-9.822 6.546-3.275 6.546-6.545 0-9.82 1.115-12.262 7.66-20.447 19.642-24.553l-9.82-4.91 7.365-14.731a732.283 732.283 0 0 0 22.097-24.552c-4.056-4.67-4.871-9.58-2.455-14.732 5.278-11.441 12.644-17.987 22.097-19.641l-9.821-4.91a356.114 356.114 0 0 0 27.007-49.105c3.275-6.546 6.546-6.546 9.82 0 11.177-8.873 11.997-16.239 2.456-22.097a1975.28 1975.28 0 0 0 46.65-81.022c6.29 0.589 12.02-1.866 17.186-7.366-4.533-10.056-2.077-19.057 7.365-27.007 3.276 6.545 6.546 6.545 9.821 0 8.083-7.636 9.723-15.817 4.91-24.552 4.489 5.666 8.58 4.846 12.277-2.456-5.082-7.4-4.262-14.765 2.455-22.097 6.688-6.997 14.054-11.087 22.097-12.276-5.082-7.4-4.262-14.765 2.455-22.097 6.29 0.59 12.02-1.866 17.187-7.365-4.665-3.526-5.485-7.611-2.456-12.276 6.688-6.998 14.054-11.088 22.097-12.276-4.664-3.526-5.485-7.612-2.455-12.277 6.688-6.997 14.054-11.087 22.097-12.276-3.619-12.29 1.292-21.296 14.731-27.007z" fill="#A85CC2" opacity=".803" p-id="11000"></path><path d="M656.44 184.141h-4.911c-1.635-6.545-3.275-6.545-4.91 0a31775.986 31775.986 0 0 0-68.746 108.03h-4.91c0-3.276-1.636-4.91-4.911-4.91-1.635-6.546-3.276-6.546-4.91 0-11.324-4.297-14.6-10.843-9.822-19.642 3.276 0 4.91 1.635 4.91 4.91 1.636 6.546 3.276 6.546 4.911 0a41.395 41.395 0 0 1 2.455-19.642c22.441-32.9 41.268-67.273 56.47-103.119 8.83-4.729 15.38-1.453 19.642 9.821-6.653 5.77-5.833 10.68 2.455 14.731 7.98-4.478 12.075-1.203 12.276 9.821z" fill="#7970CA" opacity=".934" p-id="11001"></path><path d="M646.619 184.141h4.91c1.635 6.546 3.275 6.546 4.91 0 6.256 3.388 6.256 7.479 0 12.276 8.044 1.189 15.41 5.279 22.097 12.276-0.333 9.045 0.487 17.231 2.456 24.553a1479.484 1479.484 0 0 1-56.47 88.387c-5.132 11.01-7.587 20.83-7.366 29.463-3.275 0-4.91 1.635-4.91 4.91a291.68 291.68 0 0 1-27.008-34.373c3.03-7.832 1.395-14.377-4.91-19.641-9.846 2.612-15.571-2.299-17.187-14.732h4.91c3.276 0 4.911 1.635 4.911 4.91 1.635 6.546 3.275 6.546 4.91 0a31343.549 31343.549 0 0 1 68.747-108.029z" fill="#7173CB" opacity=".97" p-id="11002"></path><path d="M720.275 292.17a2183.208 2183.208 0 0 1-63.836 122.762h-4.91v-4.91c-1.635-6.547-3.275-6.547-4.91 0v4.91c-6.34-5.117-6.34-10.843 0-17.187-5.166-5.5-10.897-7.955-17.187-7.366-2.416-5.15-1.6-10.061 2.455-14.73-2.627-8.692-6.722-10.332-12.276-4.911-5.102-3.654-7.557-8.564-7.365-14.732 3.275 0 4.91-1.635 4.91-4.91-0.22-8.633 2.234-18.454 7.366-29.463a1479.484 1479.484 0 0 0 56.47-88.387c10.822-4.174 17.368 0.736 19.641 14.73-6.653 5.77-5.833 10.681 2.456 14.732l4.91-4.91c11.176 8.873 11.996 16.238 2.455 22.097 4.326 3.476 7.597 7.572 9.821 12.276z" fill="#637ACD" opacity=".962" p-id="11003"></path><path d="M759.559 346.185c-3.276 0-4.91 1.636-4.91 4.91a347.295 347.295 0 0 1-36.83 78.568c-9.648 14.682-20.289 27.778-31.917 39.283v14.732a453.056 453.056 0 0 1-39.283-68.746v-4.91h4.91v4.91c1.635 6.545 3.275 6.545 4.91 0a2183.208 2183.208 0 0 0 63.836-122.761c3.03-0.54 5.485-2.18 7.366-4.91a516.16 516.16 0 0 1 31.918 58.924z" fill="#567FCF" opacity=".975" p-id="11004"></path><path d="M499.306 380.558c-3.276-6.545-6.546-6.545-9.821 0-11.392-3.815-9.752-7.085 4.91-9.82 14.663 2.735 16.303 6.005 4.91 9.82z" fill="#7A6EC9" opacity=".012" p-id="11005"></path><path d="M474.753 390.38c-3.275 0-4.91 1.635-4.91 4.91h-4.91c1.03-9.448 4.306-11.083 9.82-4.91z" fill="#7B6DCB" opacity=".006" p-id="11006"></path><path d="M514.037 390.38c5.514-6.173 8.785-4.538 9.82 4.91h-4.91c0-3.275-1.635-4.91-4.91-4.91z" fill="#7771C8" opacity=".004" p-id="11007"></path><path d="M489.485 380.558h9.82c3.88 4.425 8.79 7.7 14.732 9.821 3.275 0 4.91 1.636 4.91 4.91v4.911a6301.926 6301.926 0 0 1-157.133 265.164c-30.391-9.32-37.757-28.962-22.097-58.926 3.275-13.096 6.545-13.096 9.82 0 6.865-11.362 7.685-22.818 2.456-34.373 18.163-37.879 38.62-77.162 61.38-117.85 6.29 0.59 12.02-1.866 17.187-7.366-5.083-7.4-4.263-14.765 2.455-22.097a482.774 482.774 0 0 0 22.097-14.73c3.275 0 4.91-1.636 4.91-4.911 3.275 0 4.91-1.636 4.91-4.91 3.276 0 4.911-1.636 4.911-4.911 3.275 0 4.91-1.635 4.91-4.91 5.942-2.122 10.853-5.397 14.732-9.822z" fill="#7A70C9" opacity=".995" p-id="11008"></path><path d="M759.559 346.185c14.225 11.982 19.95 26.713 17.186 44.194 14.898 1.179 22.264 11 22.097 29.463-3.275 0-4.91 1.635-4.91 4.91a1726.174 1726.174 0 0 0-61.38 108.03c-3.296 3.693-7.386 5.333-12.277 4.91-1.635-6.545-3.275-6.545-4.91 0v4.91a660.527 660.527 0 0 1-29.463-58.924c6.546-3.276 6.546-6.546 0-9.821v-4.91c11.628-11.506 22.269-24.602 31.918-39.284a347.295 347.295 0 0 0 36.828-78.567c3.275 0 4.91-1.635 4.91-4.91z" fill="#4A84D1" opacity=".929" p-id="11009"></path><path d="M464.933 395.29v4.91c-3.276 0-4.91 1.635-4.91 4.91-3.276 0-4.911 1.636-4.911 4.911-5.981-8.996-2.706-13.906 9.82-14.731z" fill="#7E6DC9" opacity=".005" p-id="11010"></path><path d="M518.947 400.2h4.91c0 3.275 1.636 4.91 4.911 4.91 0 3.276 1.635 4.911 4.91 4.911 3.836 8.947 9.566 12.222 17.187 9.821a76.824 76.824 0 0 0 12.276 19.642c-0.609 2.98-2.244 4.615-4.91 4.91-1.635-6.545-3.275-6.545-4.91 0a3374.793 3374.793 0 0 1-120.306 211.149c-4.955 7.488-7.41 15.674-7.366 24.552h-19.642a675.788 675.788 0 0 1-44.193-14.731A6301.926 6301.926 0 0 0 518.947 400.2z" fill="#7173CB" opacity=".987" p-id="11011"></path><path d="M523.858 400.2v-4.91c12.526 0.825 15.802 5.735 9.82 14.731-3.275 0-4.91-1.635-4.91-4.91-3.275 0-4.91-1.636-4.91-4.91z" fill="#7473CA" opacity=".009" p-id="11012"></path><path d="M553.32 444.394h4.91c3.836 8.947 9.566 12.222 17.187 9.821 8.82 9.34 9.64 19.16 2.456 29.463A3870.6 3870.6 0 0 1 487.03 640.81a128.707 128.707 0 0 0-17.187 44.194H440.38c-3.481-4.439-8.391-6.074-14.73-4.91-0.045-8.878 2.41-17.064 7.365-24.552A3374.793 3374.793 0 0 0 553.32 444.394z" fill="#6778CC" opacity=".969" p-id="11013"></path><path d="M798.842 419.842c7.63 6.943 14.181 15.124 19.642 24.552l-9.821 4.91c13.263 8.368 23.084 19.824 29.462 34.374a72.434 72.434 0 0 0-9.82 4.91c-20.08 25.279-37.266 54.741-51.56 88.388-6.786 12.487-15.787 22.308-27.007 29.462-12.429 3.59-12.429 1.135 0-7.365-20.8-9.674-27.351-25.225-19.642-46.65-8.245 1.056-13.155-2.219-14.731-9.82v-4.91h4.91c4.89 0.422 8.981-1.218 12.276-4.911a1726.174 1726.174 0 0 1 61.38-108.03c3.276 0 4.911-1.635 4.911-4.91z" fill="#3D89D2" opacity=".981" p-id="11014"></path><path d="M577.873 483.678c5.833 2.69 11.564 4.32 17.186 4.91a503.262 503.262 0 0 0 22.097 41.739 56.254 56.254 0 0 1-4.91 12.276c7.33 3.147 12.241 8.058 14.73 14.731v4.91h-4.91v-4.91c0-3.275-1.635-4.91-4.91-4.91-4.89-0.423-8.981 1.217-12.276 4.91a33266.597 33266.597 0 0 1-66.29 120.306 11.923 11.923 0 0 0 9.82 2.455v4.91h-78.567a128.707 128.707 0 0 1 17.187-44.194 3870.6 3870.6 0 0 0 90.843-157.133z" fill="#5C7CCE" opacity=".967" p-id="11015"></path><path d="M828.305 488.588c13.1 7.906 22.922 19.362 29.462 34.373a21.886 21.886 0 0 1-9.82 7.366c17.706 5.111 22.617 15.752 14.73 31.917a837.273 837.273 0 0 0-66.29 112.94c-3.727 7.675-9.458 12.586-17.187 14.732-4.945-0.236-6.58 4.674-4.91 14.731-7.538-15.296-11.633-31.667-12.276-49.104 2.73 10.287 5.185 11.107 7.365 2.455a138.072 138.072 0 0 0-17.186-22.097c1.257-10.322 0.437-20.143-2.455-29.463 11.22-7.154 20.22-16.975 27.007-29.462 14.294-33.646 31.48-63.11 51.56-88.388z" fill="#308FD4" opacity=".96" p-id="11016"></path><path d="M617.156 552.424c3.275 0 4.91 1.635 4.91 4.91v4.91c1.636 6.546 3.276 6.546 4.91 0v-4.91c13.672 14 17.762 30.366 12.277 49.104 5.338-11.942 7.793-10.302 7.366 4.91-6.546 4.911-6.546 9.822 0 14.732-1.395 9.404 0.24 17.584 4.91 24.552-20.51 14.506-43.423 24.327-68.746 29.463H548.41a11.923 11.923 0 0 1-9.82-2.455 33266.597 33266.597 0 0 0 66.29-120.306c3.295-3.693 7.385-5.333 12.276-4.91z" fill="#5281CF" opacity=".926" p-id="11017"></path><path d="M121.202 552.424v9.82c-4.115 1.68-5.755 4.95-4.91 9.821-6.644-7.994-5.009-14.544 4.91-19.641z" fill="#A85DC2" opacity=".008" p-id="11018"></path><path d="M892.14 606.438c5.033 1.95 5.853 5.22 2.455 9.821a11.923 11.923 0 0 1-2.455-9.82z" fill="#2394D6" opacity=".006" p-id="11019"></path><path d="M96.65 606.438a11.918 11.918 0 0 1-2.455 9.821c-3.398-4.6-2.578-7.871 2.455-9.82z" fill="#A85DC3" opacity=".004" p-id="11020"></path><path d="M892.14 606.438c-4.439 3.482-6.074 8.392-4.91 14.732h14.731V635.9c-6.546 3.275-6.546 6.546 0 9.82-0.845 4.872 0.796 8.142 4.91 9.822v14.731A103268.8 103268.8 0 0 0 769.38 910.885c0.61 2.98 2.244 4.616 4.91 4.91v4.911a1192.964 1192.964 0 0 1-83.476 4.91c-5.034-1.949-5.854-5.22-2.456-9.82A8422.874 8422.874 0 0 1 877.41 596.618c6.546-1.636 6.546-3.276 0-4.91-3.275 0-4.91-1.636-4.91-4.911 3.545-2.053 6-5.323 7.365-9.821a115.017 115.017 0 0 1 12.276 29.462z" fill="#1E97D7" opacity=".976" p-id="11021"></path><path d="M646.619 611.349c10.233 12.242 11.868 25.338 4.91 39.283 1.395-9.403-0.24-17.584-4.91-24.552V611.35z" fill="#4A84D0" opacity=".012" p-id="11022"></path><path d="M901.961 635.901c7.876 3.864 11.152 10.41 9.821 19.642h-4.91c0.844-4.871-0.796-8.142-4.91-9.821V635.9z" fill="#1D97D8" opacity=".012" p-id="11023"></path><path d="M911.782 655.543c5.033 1.95 5.853 5.22 2.455 9.82a11.923 11.923 0 0 1-2.455-9.82z" fill="#1A98D7" opacity=".006" p-id="11024"></path><path d="M906.872 670.274a251.512 251.512 0 0 0 12.276 19.642l4.91-4.91a98.665 98.665 0 0 1 7.366 29.462c-6.546 3.275-6.546 6.545 0 9.82 5.922 6.07 10.832 15.89 14.731 29.463h-9.82c-4.892-0.422-8.982 1.218-12.277 4.91a4878.117 4878.117 0 0 1-71.201 130.127c2.73 1.88 4.365 4.336 4.91 7.366v4.91c-6.34-1.163-11.25 0.472-14.731 4.91-9.404-1.394-17.584 0.241-24.552 4.911-7.852-1.316-14.398 0.324-19.642 4.91H774.29c-2.667-0.294-4.302-1.93-4.91-4.91a103268.8 103268.8 0 0 1 137.492-240.611z" fill="#139BD9" opacity=".979" p-id="11025"></path><path d="M406.007 680.095c10.347 4.753 21.803 6.393 34.373 4.91a299.61 299.61 0 0 0 108.03 0c12.566 1.483 24.027-0.157 34.373-4.91 28.029-0.04 29.664 2.416 4.91 7.366-69.09 10.896-137.835 9.26-206.238-4.91a63.492 63.492 0 0 1 24.552-2.456z" fill="#607BCE" opacity=".008" p-id="11026"></path><path d="M209.59 689.916c-1.164 6.34 0.472 11.25 4.91 14.731 1.611 17.098 1.611 33.465 0 49.104a3032.457 3032.457 0 0 0-83.477 142.403c-10.817-0.51-20.638-3.781-29.462-9.821-3.943-4.532-4.763-9.443-2.456-14.731a2027.832 2027.832 0 0 0 98.21-171.865c3.476-4.327 7.571-7.597 12.275-9.821z" fill="#8C68C7" opacity=".979" p-id="11027"></path><path d="M774.29 704.647h4.91v39.283c-3.275 0-4.91 1.636-4.91 4.91-1.287-13.513-1.287-28.244 0-44.193z" fill="#2893D6" opacity=".009" p-id="11028"></path><path d="M57.367 709.557a24.218 24.218 0 0 1-2.455 14.732c-3.634-6.133-2.814-11.044 2.455-14.732z" fill="#A45DC3" opacity=".006" p-id="11029"></path><path d="M931.424 714.468c6.545 3.275 6.545 6.545 0 9.82v-9.82z" fill="#119DD8" opacity=".008" p-id="11030"></path><path d="M764.469 758.662c-4.871-0.845-8.142 0.795-9.82 4.91-9.07 1.306-12.346-0.334-9.822-4.91 7.341-5.917 13.887-5.917 19.642 0z" fill="#2794D6" opacity=".006" p-id="11031"></path><path d="M862.678 562.244c5.43 3.187 10.341 4.827 14.73 4.91a21.886 21.886 0 0 1-9.82 7.367c3.693 3.294 5.333 7.385 4.91 12.276 0 3.275 1.636 4.91 4.91 4.91v4.91a8422.874 8422.874 0 0 0-189.05 319.179c-3.399 4.6-2.579 7.871 2.455 9.82v4.91c-15.778-1.521-30.509 0.114-44.194 4.911h-24.553a41.395 41.395 0 0 1 2.456-19.641 1337.911 1337.911 0 0 0 76.111-132.582c19.672-2.902 37.678-9.453 54.015-19.642 4.871 0.845 8.142-0.795 9.821-4.91 4.91-1.635 8.186-4.91 9.82-9.821 3.276 0 4.911-1.635 4.911-4.91 6.546-13.097 6.546-26.188 0-39.284v-14.731c7.73-2.146 13.46-7.057 17.187-14.732a837.273 837.273 0 0 1 66.29-112.94z" fill="#2992D5" opacity=".967" p-id="11032"></path><path d="M214.5 753.751a237.729 237.729 0 0 0 49.105 24.553 3536.567 3536.567 0 0 1-73.657 132.581 927.458 927.458 0 0 1-58.925-9.82v-4.911a3032.457 3032.457 0 0 1 83.478-142.403z" fill="#816DC8" opacity=".965" p-id="11033"></path><path d="M936.334 753.751c1.635 19.642 3.275 19.642 4.91 0h4.911a929.327 929.327 0 0 1 9.82 58.926c-0.053 7.586-1.688 14.132-4.91 19.641-1.635-45.829-3.275-45.829-4.91 0-6.546 4.91-6.546 9.821 0 14.732 0.358 7.498-2.917 12.408-9.82 14.73-1.636-6.545-3.276-6.545-4.911 0-3.276 0-4.91 1.636-4.91 4.911-3.276 0-4.911 1.635-4.911 4.91-4.871-0.844-8.142 0.796-9.821 4.911-3.275 0-4.91 1.635-4.91 4.91-4.872-0.844-8.142 0.796-9.821 4.911-6.34-1.164-11.25 0.471-14.732 4.91-4.87-0.844-8.141 0.796-9.82 4.91h-14.732c-0.545-3.029-2.18-5.484-4.91-7.365a4878.117 4878.117 0 0 0 71.201-130.126c3.295-3.693 7.385-5.333 12.276-4.91z" fill="#08A0DA" opacity=".938" p-id="11034"></path><path d="M263.605 778.304c10.14 0.083 19.96 1.718 29.463 4.91a584.94 584.94 0 0 1-61.38 108.03 98.665 98.665 0 0 0-7.367 29.462 105.25 105.25 0 0 0-34.373-4.91v-4.91a3536.567 3536.567 0 0 0 73.657-132.582z" fill="#7970CA" opacity=".957" p-id="11035"></path><path d="M293.067 783.214l58.926 9.82a2630.828 2630.828 0 0 1-73.657 132.582 353.713 353.713 0 0 1-54.015-4.91 98.665 98.665 0 0 1 7.366-29.463 584.94 584.94 0 0 0 61.38-108.03z" fill="#7173CB" opacity=".952" p-id="11036"></path><path d="M42.635 797.945c-3.997 10.464-6.452 21.92-7.365 34.373a154.227 154.227 0 0 1 4.91-63.835 90.615 90.615 0 0 1 2.455 29.462z" fill="#9F60C5" opacity=".004" p-id="11037"></path><path d="M700.633 783.214a1337.911 1337.911 0 0 1-76.111 132.582 41.395 41.395 0 0 0-2.456 19.641 801.122 801.122 0 0 0-88.387 4.91 3047.69 3047.69 0 0 1 78.567-142.402 1242.005 1242.005 0 0 1 88.387-14.731z" fill="#398BD3" opacity=".973" p-id="11038"></path><path d="M351.993 793.035a547.8 547.8 0 0 0 68.746 4.91c4.478 6.08 5.303 12.63 2.455 19.642a841.913 841.913 0 0 0-66.29 117.85h-14.732a664.553 664.553 0 0 0-63.836-9.82 2630.828 2630.828 0 0 0 73.657-132.582z" fill="#637ACD" opacity=".979" p-id="11039"></path><path d="M420.739 797.945h68.746a152.813 152.813 0 0 0 9.82 9.821 1715.091 1715.091 0 0 1-78.566 127.671h-63.836a841.913 841.913 0 0 1 66.291-117.85c2.848-7.012 2.023-13.563-2.455-19.642z" fill="#567FCF" opacity=".967" p-id="11040"></path><path d="M489.485 797.945h83.477a156.024 156.024 0 0 1-12.276 34.373c-24.444 37.992-46.541 74-66.29 108.03-25.51 1.576-50.063-0.064-73.657-4.91a1715.091 1715.091 0 0 0 78.567-127.672 152.813 152.813 0 0 1-9.821-9.82z" fill="#4A84D1" opacity=".948" p-id="11041"></path><path d="M572.962 797.945h39.284a3047.69 3047.69 0 0 0-78.567 142.403h-39.284c19.75-34.03 41.847-70.038 66.291-108.03a156.024 156.024 0 0 0 12.276-34.373z" fill="#4188D2" opacity=".973" p-id="11042"></path><path d="M946.155 832.318h4.91c1.164 6.34-0.471 11.25-4.91 14.732v-14.732z" fill="#03A3DD" opacity=".012" p-id="11043"></path><path d="M931.424 861.78h4.91c-0.908 3.29-2.548 3.29-4.91 0z" fill="#03A3DB" opacity=".008" p-id="11044"></path><path d="M926.513 866.691h4.91c-0.908 3.29-2.548 3.29-4.91 0z" fill="#04A1DE" opacity=".008" p-id="11045"></path><path d="M921.603 871.602h4.91c-0.908 3.29-2.548 3.29-4.91 0z" fill="#03A3DB" opacity=".008" p-id="11046"></path><path d="M77.008 876.512c3.276 0 4.91 1.635 4.91 4.91v4.911c-14.534-2.612-16.17-5.888-4.91-9.82z" fill="#9364C5" opacity=".016" p-id="11047"></path><path d="M911.782 876.512h9.82c-2.322 6.904-7.232 10.18-14.73 9.821v-4.91c3.275 0 4.91-1.636 4.91-4.91z" fill="#04A3DA" opacity=".004" p-id="11048"></path><path d="M81.919 886.333h9.82c-3.274 6.546-6.545 6.546-9.82 0z" fill="#9165C6" opacity=".004" p-id="11049"></path><path d="M897.05 886.333h9.822c-3.276 6.546-6.546 6.546-9.821 0z" fill="#06A1DB" opacity=".004" p-id="11050"></path><path d="M882.32 896.154v-4.91c13.095 1.635 13.095 3.275 0 4.91z" fill="#07A2D9" opacity=".008" p-id="11051"></path><path d="M872.498 901.064v-4.91h9.821c-1.679 4.115-4.95 5.755-9.82 4.91z" fill="#089FDB" opacity=".016" p-id="11052"></path><path d="M857.767 905.975v-4.91h14.731c-3.481 4.438-8.391 6.074-14.73 4.91z" fill="#0AA0DC" opacity=".012" p-id="11053"></path><path d="M131.023 901.064c2.053 3.546 5.323 6 9.821 7.366-8.785 2.553-16.97 0.918-24.552-4.91a24.228 24.228 0 0 1 14.731-2.456z" fill="#8969C9" opacity=".006" p-id="11054"></path><path d="M843.036 905.975h14.731c-4.91 6.545-9.82 6.545-14.731 0z" fill="#0D9FD9" opacity=".008" p-id="11055"></path><path d="M818.484 915.796v-4.91c19.641 1.634 19.641 3.274 0 4.91z" fill="#109DD9" opacity=".009" p-id="11056"></path><path d="M189.948 915.796v4.91c-26.187-1.635-26.187-3.275 0-4.91z" fill="#7E6DC9" opacity=".014" p-id="11057"></path><path d="M798.842 920.706v-4.91h19.642c-5.245 4.586-11.79 6.226-19.642 4.91z" fill="#119CD8" opacity=".02" p-id="11058"></path><path d="M189.948 920.706c7.852-1.316 14.398 0.324 19.642 4.91-7.852 1.316-14.397-0.324-19.642-4.91z" fill="#7A70CA" opacity=".014" p-id="11059"></path><path d="M774.29 925.616v-4.91h24.552c-6.968 4.67-15.149 6.305-24.552 4.91z" fill="#149BD9" opacity=".014" p-id="11060"></path><path d="M209.59 925.616a90.607 90.607 0 0 1 29.463 2.456c-10.862 3.874-20.683 3.054-29.463-2.456z" fill="#7672CA" opacity=".008" p-id="11061"></path><path d="M774.29 925.616c-7.1 5.466-15.286 6.286-24.552 2.456a63.492 63.492 0 0 1 24.552-2.456z" fill="#1999D7" opacity=".006" p-id="11062"></path><path d="M342.172 935.437c49.782 6.693 100.516 9.969 152.223 9.821v4.91a2009.25 2009.25 0 0 1-201.327-12.275 247.8 247.8 0 0 1 49.104-2.456z" fill="#5A7ECE" opacity=".004" p-id="11063"></path><path d="M690.813 930.527a159.402 159.402 0 0 1 39.283 2.455 1900.941 1900.941 0 0 1-235.7 17.187v-4.91c51.677-0.261 102.416-3.536 152.223-9.822 15.777 1.523 30.508-0.113 44.194-4.91z" fill="#348ED4" opacity=".014" p-id="11064"></path></svg>