<?xml version="1.0" standalone="no"?><!DOCTYPE svg PUBLIC "-//W3C//DTD SVG 1.1//EN" "http://www.w3.org/Graphics/SVG/1.1/DTD/svg11.dtd"><svg t="1722346626077" class="icon" viewBox="0 0 1024 1024" version="1.1" xmlns="http://www.w3.org/2000/svg" p-id="2845" xmlns:xlink="http://www.w3.org/1999/xlink" width="200" height="200"><path d="M716.8 85.333333h-110.933333C469.333333 85.333333 384 170.666667 384 307.2v172.8h266.666667c17.493333 0 32 14.506667 32 32s-14.506667 32-32 32H384v172.8C384 853.333333 469.333333 938.666667 605.866667 938.666667h110.506666c136.533333 0 221.866667-85.333333 221.866667-221.866667V307.2C938.666667 170.666667 853.333333 85.333333 716.8 85.333333z" fill="#272636" p-id="2846"></path><path d="M194.602667 480l88.32-88.32c6.4-6.4 9.386667-14.506667 9.386666-22.613333s-2.986667-16.64-9.386666-22.613334a32.170667 32.170667 0 0 0-45.226667 0l-142.933333 142.933334c-12.373333 12.373333-12.373333 32.853333 0 45.226666l142.933333 142.933334c12.373333 12.373333 32.853333 12.373333 45.226667 0 12.373333-12.373333 12.373333-32.853333 0-45.226667l-88.32-88.32h189.44v-64h-189.44z" fill="#272636" p-id="2847"></path></svg>