<?xml version="1.0" standalone="no"?><!DOCTYPE svg PUBLIC "-//W3C//DTD SVG 1.1//EN" "http://www.w3.org/Graphics/SVG/1.1/DTD/svg11.dtd"><svg t="1708173883332" class="icon" viewBox="0 0 1024 1024" version="1.1" xmlns="http://www.w3.org/2000/svg" p-id="10364" xmlns:xlink="http://www.w3.org/1999/xlink" width="200" height="200"><path d="M239.616 239.616c58.368-58.368 120.32-112.64 185.856-162.816C272.384-11.264 136.704-29.696 53.248 53.76-29.184 136.704-11.264 272.384 76.8 425.472c49.664-65.536 104.448-127.488 162.816-185.856z m476.672 476.672c260.096-260.096 387.584-529.408 253.952-662.528-133.12-133.12-402.944-6.144-662.528 253.952-260.096 259.584-387.584 529.408-253.952 662.528 133.12 133.632 402.432 6.144 662.528-253.952zM472.064 435.2H440.32v203.264c0 19.968-15.872 36.352-35.328 36.352s-35.328-16.384-35.328-36.352V435.2H337.92c-21.504 0-39.424-15.36-39.424-34.304s17.408-34.304 39.424-34.304h134.144c21.504 0 39.424 15.36 39.424 34.304S493.568 435.2 472.064 435.2z m172.032 239.616c-15.872 0-30.208-10.24-34.816-25.088l-78.336-236.032c-6.144-18.944 4.096-39.424 23.04-45.568h0.512c19.456-6.144 39.936 4.096 46.592 23.04l43.008 130.048 43.008-130.048c6.656-19.456 27.136-29.696 46.592-23.04 19.456 6.144 29.696 26.624 23.552 46.08L678.912 650.24c-4.608 14.848-18.944 25.088-34.816 24.576z m140.288 109.568c-58.368 58.368-120.32 113.152-185.856 162.816 153.088 88.064 288.768 105.984 372.224 23.04 82.944-82.944 65.024-218.624-23.04-372.224-50.176 66.048-104.96 128-163.328 186.368z" fill="#040000" p-id="10365"></path></svg>