<?xml version="1.0" standalone="no"?><!DOCTYPE svg PUBLIC "-//W3C//DTD SVG 1.1//EN" "http://www.w3.org/Graphics/SVG/1.1/DTD/svg11.dtd"><svg t="1708219551557" class="icon" viewBox="0 0 1035 1024" version="1.1" xmlns="http://www.w3.org/2000/svg" p-id="5937" xmlns:xlink="http://www.w3.org/1999/xlink" width="202.1484375" height="200"><path d="M359.94894 176.23c-47.445 3.413-94.805 4.079-141.841 9.438-22.187 2.56-43.844 10.086-66.236 12.083-22 1.929-43.605 1.434-65.6 4.164a195.86 195.86 0 0 1-21.287 4.559c-11.435 0.563-15.121-2.406-20.873 8.533-9.916 19.2 4.4 59.836 8.875 78.234 9.678 39.251 18.078 78.88 30.328 117.433a771.648 771.648 0 0 1 33.792 119.4c5.274 35.994 13.995 72 17.6 108.083a278.868 278.868 0 0 0 11.758 75.844 1135.5 1135.5 0 0 1 39.25 132.557c9.523 38.792 15.6 64.631 44.373 94.4 7.68 7.919 31.351 27.307 31.2 38.485a492.97 492.97 0 0 0 78.4 0.649c37.035 0 68.489-11.52 104.4-16.4 36.233-4.966 72.482-13.927 108.476-19.285a649.271 649.271 0 0 0 94.634-19.533c44.715-13.756 88.081-30.72 134.554-31.522a292.323 292.323 0 0 0 91.6-24.883c6.246-2.236 64.478-14.165 64.393-19.524-0.154-19.354-26.726-44.373-38.554-60.006a351.951 351.951 0 0 1-48.725-86c-6.639-17.835-22.562-34.133-29.525-53.112-6.827-18.773-15.838-33.6-23.04-51.2-6.963-17.067-9.2-39.031-17.067-57.446-20.48-48.316-58.488-89.207-72.073-139.947a236.849 236.849 0 0 0-10.396-43.76c-6.076-12.646-14.968-23.279-19.917-36.727-16.4-44.646-42.155-89.685-51.849-135.765a106.24 106.24 0 0 0-26.795-54.608c-15.923-14.234-26.795 7.356-46.4 11.2-21.043 4.079-43.042 4.8-64.478 9.523a919.122 919.122 0 0 1-128.977 25.133z" fill="#FFFFFF" p-id="5938"></path><path d="M957.21294 824.542a974.4 974.4 0 0 1-87.842-136.536c-20.241-40.4-39.117-84.156-57.207-126.635-9.438-22.187-18.773-44.373-28.484-66.56-7.2-16.4-24.235-41.353-23.893-60.075a45.465 45.465 0 0 0-31.608 16.316c-3.413 9.114 3.516 22.562 5.683 31.283a624.525 624.525 0 0 0 31.2 73.2c12.237 30.72 25.208 61.2 36.557 92.313a911.622 911.622 0 0 0 58.966 122.078q10.086 18.6 21.367 36.557c2.645 4.233 5.12 8.533 7.834 12.646 13.039 19.285-6.827 24-21.845 28.638-37.547 11.605-76.407 17.442-114.807 25.6-35.84 7.68-70.963 17.527-106.8 24.713-85.341 17.29-171.681 33.126-257.441 48.164a722.191 722.191 0 0 1-71.834 9.353 91.53 91.53 0 0 1-47.121-3.055 90.146 90.146 0 0 1-33.434-38.963 458.384 458.384 0 0 1-30-64.853 1274.877 1274.877 0 0 1-47.379-182.17c-6.827-32.154-14.08-64.325-23.279-95.915-25.515-87.435-40.738-177.203-61.509-265.694a446.463 446.463 0 0 1-14.08-68.641 101.153 101.153 0 0 1 1.28-13.927 36.709 36.709 0 0 0 9.2-2.645 91.374 91.374 0 0 1 13.193-1.519c7.356-0.478 14.8-1.126 22.187-1.707 14.4-1.28 28.877-2.714 43.281-4.233 32.427-3.6 65.195-3.755 97.758-7.441 35.038-3.994 69.973-9.677 105.045-12.954a1081.883 1081.883 0 0 0 206.4-32.324c5.683-1.707 16.64-6.076 22.323-3.413 7.356 3.6 7.117 13.653 11.042 19.678a157.649 157.649 0 0 1 13.995 31.113c1.911 5.837 3.686 11.2 6.007 16.879 2.714 6.639 11.366 29.525 19.354 28.314a218.314 218.314 0 0 0 28.691-28.332 346.841 346.841 0 0 0-19.285-39.117 203.413 203.413 0 0 1-8.073-26.556 141.756 141.756 0 0 0-25.122-44.373c-9.284-11.281-32.154-2.56-44.373 0.239-32.154 7.356-63.147 19.285-95.676 25.207-46.08 8.4-92.791 12.715-139.435 16.725-27.6 2.406-55.279 4.642-82.961 7.441-39.834 4.164-79.753 9.114-119.671 12.151-11.2 0.563-22.477 1.434-33.758 2.475-13.193 1.126-25.993 0.393-39.253 2.56-8.158 1.28-15.753 3.6-23.757 5.444a18.517 18.517 0 0 0-13.362 22.086C43.29294 342.084 63.07294 476.484 101.43894 608.392c37.359 128.324 43.913 267.947 128.956 378.4a62.054 62.054 0 0 0 55.45 18.654c134.161-4.318 267.127-41.591 397.841-69.035 93.355-19.524 194.56-32.085 280.951-74.564 11.947-5.837 12.476-10.24 4.966-20.48q-6.143-8.42-12.39-16.825z" fill="#006CA2" p-id="5939"></path><path d="M489.38094 260.403c-24.8 2.884-48.555 9.284-73.2 13.653-22.716 3.925-39.834-2.475-62.157 6.161-26.162 10.24-54.716 5.837-81.916 10.24-25.446 4.079-52.326 34.321-76 9.045-19.115-20.326-48.964 10-30.481 30.481 35.209 38.878 76 17.835 118.238 3.277 14.473-4.966 32.427 2.236 47.36-1.126a571.733 571.733 0 0 1 55.928-14.882c33.672-3.6 68.267-8.875 102.161-13.432 27.05-3.737 27.988-46.694 0.067-43.417z" fill="#006CA2" p-id="5940"></path><path d="M398.65494 414.481a92.16 92.16 0 0 1-41.847 3.123c-12.715-1.365-30.72 11.435-41.847 15.753-20 7.765-44.8-3.123-65.673-2.884a115.385 115.385 0 0 0-45.517 18.244c-26.965 13.278-3.413 53.606 23.6 40.312 33.195-16.4 64.956-2.953 99.925-10.8 13.926-3.123 25.122-14.967 40.329-13.517a80.487 80.487 0 0 0 42.957-6.554c27.122-10.004 16.438-52.159-11.927-43.677z" fill="#006CA2" p-id="5941"></path><path d="M385.29194 552.756c-6.963 4.164-18.244 1.434-26.317 2.406-16.725 2.082-29.286 19.763-47.035 15.92-32.888-7.045-51.681-8.069-78.507 15.517a17.954 17.954 0 0 0 12.561 30.4c20.156 0.563 32.563-9.591 54-2.645a62.4 62.4 0 0 0 50.312-5.922 55.142 55.142 0 0 1 32-9.762 35.43 35.43 0 0 0 31.846-17.067 21.18 21.18 0 0 0-28.86-28.843z" fill="#006CA2" p-id="5942"></path><path d="M490.33694 406.631s-34.713 165.547-34.713 165.683a16.845 16.845 0 0 0 2.236 13.841c5.12 6.076 14.8 2.167 20.8 0.324 4.233-1.28 8.533-2.475 12.715-3.755 6.076-1.707 12.169-3.6 18.244-5.359l21.914-6.485 23.6-6.963 23.433-6.963c7.117-2.082 14.234-4.164 21.282-6.315q8.653-2.56 17.289-5.12l11.2-3.413c0.154 0 3.413-1.041 3.413-1.041l-38.688-115.864z" fill="#FCD4B5" p-id="5943"></path><path d="M464.08894 518.554c-6.007 19.115-11.84 38.161-16.076 52.634-1.365 4.318-2.406 8.328-3.413 11.605a22.544 22.544 0 0 0 0.649 16.641 12.134 12.134 0 0 0 9.762 3.6l0.717-0.154c6.963-1.365 34.714-12.237 66.406-25.276a76.288 76.288 0 0 1-58.045-59.05z" fill="#006CA2" p-id="5944"></path><path d="M975.21394 78.473a116.5 116.5 0 0 0-35.994-35.6c-23.125-11.947-74-23.279-93.867 0.563-19.524 23.518-9.591 78.507 1.28 103.834 19.2 44.237 91.682 83.627 135.117 48.964a54.886 54.886 0 0 0 20.156-57.6 206.513 206.513 0 0 0-9.762-29.832 153.947 153.947 0 0 0-16.93-30.329z" fill="#FCD4B5" p-id="5945"></path><path d="M821.14094 78.319a102.739 102.739 0 0 0-26.556 19.917 264.535 264.535 0 0 1-49.033 41.438 714.093 714.093 0 0 0-85.606 76.083c-20.8 18.773-38.247 40.721-57.754 60.808-17.288 17.835-28.483 40.964-43.912 60.314-9.523 11.844-16.64 24.951-25.992 36.881a253.071 253.071 0 0 0-26.641 34.884c-2.167 3.994-6.963 10.564-6.076 15.121 1.6 7.595 6.963 6.827 13.124 8.533a206.326 206.326 0 0 1 34.406 7.049 94.527 94.527 0 0 0 6.827 21.367c2.953 10.8 3.277 20.48 15.36 21.76a65.417 65.417 0 0 1 21.76 4.318c10.24 4.233 8.533 9.677 10.718 19.524a165.881 165.881 0 0 0 6.554 26.078c1.707 3.925 4.233 9.045 8.721 10.394 7.595 2.321 10.24-4.233 15.514-8.243 26.078-19.593 53.111-38.878 79.684-58.163a493.822 493.822 0 0 0 42.957-40c13.841-12.8 29.764-23.518 44-36.164 20-17.92 41.438-33.195 61.918-50.4 10.718-8.96 18.313-20.087 28.16-30 10.633-10.633 23.518-17.92 33.843-28.791a157.018 157.018 0 0 0 30.718-49.498c1.519-3.686 8.636-11.042 6.827-15.753-2.714-6.827-16.486-4.642-22.187-5.837a359.419 359.419 0 0 1-51.439-22.8 73.471 73.471 0 0 1-29.116-25.6 135.04 135.04 0 0 1-16.589-30.822 128.544 128.544 0 0 1-2.646-47.36v-4.235z" fill="#40C0E7" p-id="5946"></path><path d="M1028.97894 141.176C1006.33194 56.086 912.25994-17.049 827.28494 37.069a17.036 17.036 0 0 0-1.519 1.041 1728.854 1728.854 0 0 0-148.07 142.319 1874.294 1874.294 0 0 0-153.122 171.366c-5.684 7.527-11.674 13.841-16.641 21.914a100.507 100.507 0 0 0-19.439 42.24c-1.6 20.873 20.8 24.951 37.273 26.726 4.642 0.478 11.2 2 12.646 7.117 1.707 6.076 2.714 12.646 4.164 18.773a44.478 44.478 0 0 0 4.881 17.6c3.6 4.8 10.872 4.8 16.162 5.444 5.6 0.717 11.2 1.365 16.879 2.236a20.89 20.89 0 0 1 9.762 2.8c4.4 3.413 4.164 9.762 5.837 14.558 2.236 6.485 3.038 13.432 4.8 20.088a12.578 12.578 0 0 0 7.765 10.24 40.38 40.38 0 0 0 40.96-7.2c52.156-37.444 101.274-78.967 149.845-120.951 24-20.719 48.077-41.284 71.68-62.481 3.6-3.191 7.2-6.485 10.8-9.677 32.563-29.679 68.8-60.245 99.755-91.6 4.489-4.471 8.96-9.045 13.193-13.756 27.359-30.503 45.757-51.153 34.083-94.69zM539.37094 383.829c23.688-27.836 49.6-54.153 74.394-81.033 52.326-56.8 107.366-111.445 162.475-165.444 8.073-7.834 15.036-17.067 23.433-24.644 3.038-2.645 8.875-8.96 13.363-7.834 6.246 1.6 5.6 11.674 6.076 16.555a145.27 145.27 0 0 0 4.489 22.8L546.65794 424.243l-29.355-6.485a164.058 164.058 0 0 1 22.067-33.929z m290.713-221.354a122.679 122.679 0 0 0 25.034 38.011 55.105 55.105 0 0 0 6.007 5.359 197.267 197.267 0 0 0 11.127 8l-277.2 265.506-30.566-6.076-5.83-36.489z m86.152 84.958c-2.321 2.167-4.642 4.233-6.963 6.4-5.922 5.513-11.844 11.042-17.835 16.486-15.991 14.882-32.085 29.764-48.077 44.646q-29.013 26.88-57.924 53.76-29.764 27.6-59.6 55.194-26.641 24.593-53.2 49.118-19.312 17.766-38.719 35.449c-5.12 4.557-10.086 9.523-15.514 13.653l-10.633-30.959L887.46294 223.232a135.22 135.22 0 0 0 25.6 10.871c11.264 3.174 11.264 5.82 3.191 13.329z m71.68-77.6c-13.517 36.727-53.436 22.477-78.4 9.847a104.773 104.773 0 0 1-53.436-73.387c-6.246-28.16-3.6-58.027 33.126-54.955a124.809 124.809 0 0 1 82.722 49.357 78.9 78.9 0 0 1 16.09 69.136z" fill="#006CA2" p-id="5947"></path><path d="M909.22194 90.078c-14.8-0.563-15.36 11.52-12.322 22.716a42.428 42.428 0 0 0 22.8 28.552c10.24 4.642 26.556 9.609 31.351-5.444a31.675 31.675 0 0 0-7.765-27.529 49.494 49.494 0 0 0-34.064-18.295z" fill="#006CA2" p-id="5948"></path></svg>