<?xml version="1.0" standalone="no"?><!DOCTYPE svg PUBLIC "-//W3C//DTD SVG 1.1//EN" "http://www.w3.org/Graphics/SVG/1.1/DTD/svg11.dtd"><svg t="1719010767096" class="icon" viewBox="0 0 1024 1024" version="1.1" xmlns="http://www.w3.org/2000/svg" p-id="7697" xmlns:xlink="http://www.w3.org/1999/xlink" width="200" height="200"><path d="M1001.302406 255.49481L763.746399 18.002731a61.306838 61.306838 0 1 0-86.750135 86.750135l150.678016 150.741944H31.963941a31.963941 31.963941 0 0 0-31.963941 31.963941v63.927881a31.963941 31.963941 0 0 0 31.963941 31.963941h958.91822a31.963941 31.963941 0 0 0 31.963941-31.963941v-63.927881c0-11.76273-7.159923-22.374758-21.543696-31.963941zM21.543696 767.173572l237.556007 237.49208a61.306838 61.306838 0 1 0 86.750135-86.750135L195.171822 767.173572H990.882161a31.963941 31.963941 0 0 0 31.963941-31.96394v-63.927882a31.963941 31.963941 0 0 0-31.963941-31.96394H31.963941a31.963941 31.963941 0 0 0-31.963941 31.96394v63.927882c0 11.76273 7.159923 22.374758 21.543696 31.96394z" fill="#272636" p-id="7698"></path></svg>