<?xml version="1.0" standalone="no"?><!DOCTYPE svg PUBLIC "-//W3C//DTD SVG 1.1//EN" "http://www.w3.org/Graphics/SVG/1.1/DTD/svg11.dtd"><svg t="1708219767432" class="icon" viewBox="0 0 2249 1024" version="1.1" xmlns="http://www.w3.org/2000/svg" p-id="9034" xmlns:xlink="http://www.w3.org/1999/xlink" width="439.2578125" height="200"><path d="M1126.343743 0.070313c-234.280061 0-431.094993 160.474461-491.193839 376.276763-52.498626-115.488191-168.065894-197.30697-302.251504-197.30697A334.497522 334.497522 0 0 0 0 511.92972v0.070291a334.451393 334.451393 0 0 0 332.828109 332.968691h0.070291c134.185609 0 249.6738-81.88907 302.181213-197.377261 60.098845 215.925311 256.984069 376.408559 491.26413 376.408559 233.085113 0 428.84568-158.646894 490.280055-372.762211 53.350905 113.379459 167.08182 193.722127 299.721026 193.722127A334.374512 334.374512 0 0 0 2249.313516 512.070302v-0.076881A334.512898 334.512898 0 0 0 1916.415115 179.03132h-0.070291c-132.709497 0-246.510703 80.412958-299.791317 193.722126C1555.259714 158.717207 1359.499147-0.070269 1126.414034 0.000022z m0 195.409112a316.590877 316.590877 0 0 1 0 633.181754h-1.405821a315.105979 315.105979 0 0 1-315.114765-315.114765v-1.537617a315.101586 315.101586 0 0 1 316.529372-316.590877z m-793.445343 179.022511c77.038988 0 137.489289 60.450301 137.489289 137.55958s-60.38001 137.489289-137.489289 137.559579h-1.405821a136.103237 136.103237 0 0 1-136.083467-136.074681v-1.537617c0-77.100493 60.38001-137.489289 137.489288-137.559579z m1583.446424 0c77.100493 0 137.55958 60.450301 137.55958 137.55958s-60.450301 137.55958-137.55958 137.559579h-1.405821a136.103237 136.103237 0 0 1-136.083467-136.083467v-1.537617c0-77.100493 60.38001-137.489289 137.489288-137.55958z" fill="#0082C9" p-id="9035"></path></svg>