<?xml version="1.0" standalone="no"?><!DOCTYPE svg PUBLIC "-//W3C//DTD SVG 1.1//EN" "http://www.w3.org/Graphics/SVG/1.1/DTD/svg11.dtd"><svg t="1722467623117" class="icon" viewBox="0 0 1024 1024" version="1.1" xmlns="http://www.w3.org/2000/svg" p-id="5969" xmlns:xlink="http://www.w3.org/1999/xlink" width="200" height="200"><path d="M128 512a384.448 384.448 0 0 1 384-384 384.64 384.64 0 0 1 236.8 81.6l33.92-33.92a12.8 12.8 0 0 1 21.44 5.824l45.248 172.16a12.8 12.8 0 0 1-15.616 15.68l-172.224-45.312a12.8 12.8 0 0 1-5.76-21.44l47.232-47.232A316.928 316.928 0 0 0 512.064 192a320.384 320.384 0 0 0-320 320 320.448 320.448 0 0 0 320 320 320.384 320.384 0 0 0 320-320h64a384.448 384.448 0 0 1-384 384A384.448 384.448 0 0 1 128 512z m352 160V496.576a96 96 0 0 1-70.4-92.544 96 96 0 0 1 96-96 96 96 0 0 1 96 96 96 96 0 0 1-70.4 92.544V524.8h76.8a51.2 51.2 0 0 1-51.2 51.2h-25.6v32h76.8a51.2 51.2 0 0 1-51.2 51.2h-25.6v64a51.2 51.2 0 0 1-51.136-51.264z m-19.2-267.968a44.8 44.8 0 0 0 44.8 44.8 44.8 44.8 0 0 0 44.8-44.8 44.8 44.8 0 0 0-44.8-44.8 44.8 44.8 0 0 0-44.736 44.736z" p-id="5970" fill="#272636"></path></svg>