<?xml version="1.0" standalone="no"?><!DOCTYPE svg PUBLIC "-//W3C//DTD SVG 1.1//EN" "http://www.w3.org/Graphics/SVG/1.1/DTD/svg11.dtd"><svg t="1720791424743" class="icon" viewBox="0 0 1024 1024" version="1.1" xmlns="http://www.w3.org/2000/svg" p-id="14386" xmlns:xlink="http://www.w3.org/1999/xlink" width="200" height="200"><path d="M298.666667 213.333333H213.333333v85.333334h85.333334V213.333333z" fill="#272834" p-id="14387"></path><path d="M128 85.333333a42.666667 42.666667 0 0 0-42.666667 42.666667v256a42.666667 42.666667 0 0 0 42.666667 42.666667h682.666667a42.666667 42.666667 0 0 0 42.666666-42.666667V128a42.666667 42.666667 0 0 0-42.666666-42.666667H128z m42.666667 256V170.666667h597.333333v170.666666H170.666667z" fill="#272834" p-id="14388"></path><path d="M853.333333 768h-85.333333v85.333333h-85.333333v-85.333333h-85.333334v-85.333333h85.333334v-85.333334h85.333333v85.333334h85.333333v85.333333z" fill="#272834" p-id="14389"></path><path d="M725.333333 469.333333a256 256 0 1 0 0 512 256 256 0 0 0 0-512z m-170.666666 256a170.666667 170.666667 0 1 1 341.333333 0 170.666667 170.666667 0 0 1-341.333333 0z" fill="#272834" p-id="14390"></path><path d="M298.666667 640H213.333333v85.333333h85.333334v-85.333333z" fill="#272834" p-id="14391"></path><path d="M429.653333 768H170.666667v-170.666667h284.757333a299.434667 299.434667 0 0 1 60.885333-85.333333H128a42.666667 42.666667 0 0 0-42.666667 42.666667v256a42.666667 42.666667 0 0 0 42.666667 42.666666h327.424a296.618667 296.618667 0 0 1-25.728-85.333333z" fill="#272834" p-id="14392"></path></svg>