<?xml version="1.0" standalone="no"?><!DOCTYPE svg PUBLIC "-//W3C//DTD SVG 1.1//EN" "http://www.w3.org/Graphics/SVG/1.1/DTD/svg11.dtd"><svg t="1708220068793" class="icon" viewBox="0 0 1024 1024" version="1.1" xmlns="http://www.w3.org/2000/svg" p-id="19525" xmlns:xlink="http://www.w3.org/1999/xlink" width="200" height="200"><path d="M814.229333 917.333333H209.770667A60.458667 60.458667 0 0 1 149.333333 856.896V826.666667l50.517334-405.013334C205.525333 376.277333 244.096 341.333333 289.813333 341.333333h444.373334c45.717333 0 84.288 34.944 89.962666 80.32L874.666667 826.666667v30.229333A60.458667 60.458667 0 0 1 814.229333 917.333333z" fill="#ACAEAA" p-id="19526"></path><path d="M718.72 768H305.28c-35.2 0-62.976-30.869333-60.266667-65.962667l20.928-267.114666C268.352 403.434667 294.613333 384 326.186667 384h371.626666c31.594667 0 57.834667 18.986667 60.266667 50.474667l20.928 270.229333C781.696 739.797333 753.941333 768 718.72 768z" fill="#F0F2EF" p-id="19527"></path><path d="M829.333333 917.333333H194.666667a45.312 45.312 0 1 1 0-90.666666h634.666666a45.312 45.312 0 1 1 0 90.666666z" fill="#787B76" p-id="19528"></path><path d="M620.352 618.666667L576 448h-128l-41.984 170.666667H330.666667l181.333333 120.896L693.333333 618.666667z" fill="#555958" p-id="19529"></path><path d="M405.653333 640h21.717334l47.893333-213.333333h72.512l49.002667 213.333333h22.848L512 707.669333z" fill="#3B4040" p-id="19530"></path><path d="M751.936 235.008H272.064a62.293333 62.293333 0 0 1-62.272-62.272v-3.797333A62.250667 62.250667 0 0 1 272.064 106.666667h479.893333a62.293333 62.293333 0 0 1 62.272 62.272v3.776a62.293333 62.293333 0 0 1-62.293333 62.293333z" fill="#E80000" p-id="19531"></path><path d="M270.229333 170.837333c-16.661333 0-30.229333-14.4-30.229333-32.085333S253.568 106.666667 270.229333 106.666667h483.562667c16.661333 0 30.229333 14.4 30.229333 32.085333s-13.568 32.085333-30.229333 32.085333H270.229333z" fill="#E58484" p-id="19532"></path><path d="M448 106.666667h128v448h-128z" fill="#939692" p-id="19533"></path><path d="M469.333333 106.666667h85.333334v448h-85.333334z" fill="#AAAEA8" p-id="19534"></path><path d="M554.666667 640h-85.333334a21.333333 21.333333 0 0 1-21.333333-21.333333v-21.333334a21.333333 21.333333 0 0 1 21.333333-21.333333h85.333334a21.333333 21.333333 0 0 1 21.333333 21.333333v21.333334a21.333333 21.333333 0 0 1-21.333333 21.333333z" fill="#555958" p-id="19535"></path></svg>