<?xml version="1.0" standalone="no"?><!DOCTYPE svg PUBLIC "-//W3C//DTD SVG 1.1//EN" "http://www.w3.org/Graphics/SVG/1.1/DTD/svg11.dtd"><svg t="1709454241332" class="icon" viewBox="0 0 1024 1024" version="1.1" xmlns="http://www.w3.org/2000/svg" p-id="12532" xmlns:xlink="http://www.w3.org/1999/xlink" width="200" height="200"><path d="M625.5539 754.219536s31.734645-49.436964 81.963177-75.990443a158.313422 158.313422 0 0 1 152.772452 7.196065c40.585805 25.761911 54.258327 47.422066 54.258328 47.422066L949.880534 712.410401s7.196065-3.598032 7.196065 4.821363v126.218974s0 11.225861-8.419396 7.196065c-7.196065-3.31019-83.906114-47.422066-107.94097-61.310471-13.240759-5.972734-1.655095-10.866058-1.655095-10.866058l33.821504-19.429374a145.576388 145.576388 0 0 0-47.494026-37.203655c-30.07955-15.831342-58.360084-17.702319-92.901195-4.53352-22.595643 8.563317-49.149122 30.583275-68.218693 63.037526L626.057625 754.219536zM939.086437 921.096275s-31.806606 49.436964-82.035137 75.990443a157.881658 157.881658 0 0 1-152.700492-7.196064c-40.585805-25.761911-54.258327-47.494027-54.258327-47.494027l-34.972875 20.148981s-7.196065 3.598032-7.196064-4.821363v-125.931132s0-11.225861 8.491356-7.196065c7.196065 3.38215 83.906114 47.494027 107.94097 61.382432 13.240759 5.972734 1.583134 10.866058 1.583134 10.866058l-33.749543 19.429374a145.79227 145.79227 0 0 0 47.422066 37.203654 104.414898 104.414898 0 0 0 92.973155 4.533521c22.595643-8.563317 49.149122-30.583275 68.218693-63.037526l38.283064 26.121714zM502.429234 21.588194a283.452987 283.452987 0 1 0 283.452987 283.452987A283.452987 283.452987 0 0 0 502.429234 21.588194z m0 500.342375a218.400562 218.400562 0 0 1-216.889389-217.249192 216.889389 216.889389 0 0 1 433.706817 0 218.400562 218.400562 0 0 1-216.817428 216.889389z" p-id="12533"></path><path d="M93.54884 985.860857a35.980323 35.980323 0 0 1-35.980323-35.980323 431.763879 431.763879 0 0 1 653.618553-370.59733 35.980323 35.980323 0 1 1-37.059733 61.670275A359.803233 359.803233 0 0 0 129.529164 949.880534a35.980323 35.980323 0 0 1-35.980324 35.980323z" p-id="12534"></path></svg>