<?xml version="1.0" standalone="no"?><!DOCTYPE svg PUBLIC "-//W3C//DTD SVG 1.1//EN" "http://www.w3.org/Graphics/SVG/1.1/DTD/svg11.dtd"><svg t="1707544905906" class="icon" viewBox="0 0 1024 1024" version="1.1" xmlns="http://www.w3.org/2000/svg" p-id="5425" xmlns:xlink="http://www.w3.org/1999/xlink" width="512" height="512"><path d="M928 192v32H400l-64 64H32v-96a64 64 0 0 1 64-64h768a64 64 0 0 1 64 64z" fill="#1B45AF" p-id="5426"></path><path d="M400 224l-64 64H32v544a64 64 0 0 0 64 64h768a64 64 0 0 0 64-64V224zM208 736a32 32 0 1 1 32-32 32 32 0 0 1-32 32z m160 0a32 32 0 1 1 32-32 32 32 0 0 1-32 32z m10.56-165.44A128 128 0 0 1 288 608h-128v-128h256a128 128 0 0 1-37.44 90.56zM800 816H576v-80h224z" fill="#CEE6F4" p-id="5427"></path><path d="M992 224v608a64 64 0 0 1-64 64h-64a64 64 0 0 0 64-64V224z" fill="#ACD5EA" p-id="5428"></path><path d="M992 192v32h-64v-32a64 64 0 0 0-64-64h64a64 64 0 0 1 64 64z" fill="#0A2872" p-id="5429"></path><path d="M416 480a128 128 0 0 1-128 128h-128v-128z" fill="#1B45AF" p-id="5430"></path><path d="M208 704m-32 0a32 32 0 1 0 64 0 32 32 0 1 0-64 0Z" fill="#0A2872" p-id="5431"></path><path d="M368 704m-32 0a32 32 0 1 0 64 0 32 32 0 1 0-64 0Z" fill="#0A2872" p-id="5432"></path><path d="M576 736h224v80H576z" fill="#458C28" p-id="5433"></path><path d="M32 752a16 16 0 0 1-16-16V192a80 80 0 0 1 80-80h240a16 16 0 0 1 0 32H96a48 48 0 0 0-48 48v544a16 16 0 0 1-16 16z" fill="#0D182D" p-id="5434"></path><path d="M864 912H96a80 80 0 0 1-80-80v-32a16 16 0 0 1 32 0v32a48 48 0 0 0 48 48h768a48 48 0 0 0 48-48V192a48 48 0 0 0-48-48H400a16 16 0 0 1 0-32h464a80 80 0 0 1 80 80v640a80 80 0 0 1-80 80z" fill="#0D182D" p-id="5435"></path><path d="M928 912h-64a16 16 0 0 1 0-32 48 48 0 0 0 48-48V192a48 48 0 0 0-48-48 16 16 0 0 1 0-32h64a80 80 0 0 1 80 80v384a16 16 0 0 1-32 0V192a48 48 0 0 0-48-48 80 80 0 0 1 16 48v640a80 80 0 0 1-16 48 48 48 0 0 0 48-48V640a16 16 0 0 1 32 0v192a80 80 0 0 1-80 80z" fill="#0D182D" p-id="5436"></path><path d="M336 304H48a16 16 0 0 1 0-32h281.44l59.2-59.36A16 16 0 0 1 400 208h592a16 16 0 0 1 0 32H406.56l-59.2 59.36A16 16 0 0 1 336 304z" fill="#0D182D" p-id="5437"></path><path d="M128 224H112a16 16 0 0 1 0-32h16a16 16 0 0 1 0 32z" fill="#458C28" p-id="5438"></path><path d="M208 224h-16a16 16 0 0 1 0-32h16a16 16 0 0 1 0 32z" fill="#D1B339" p-id="5439"></path><path d="M288 224h-16a16 16 0 0 1 0-32h16a16 16 0 0 1 0 32z" fill="#D30B32" p-id="5440"></path><path d="M288 624h-128a16 16 0 0 1-16-16v-128a16 16 0 0 1 16-16h64a16 16 0 0 1 0 32h-48v96h112a112 112 0 0 0 110.88-96H288a16 16 0 0 1 0-32h128a16 16 0 0 1 16 16 144 144 0 0 1-144 144z" fill="#0D182D" p-id="5441"></path><path d="M368 688h-144a80 80 0 0 1-80-80v-144a32 32 0 0 0-32-32 16 16 0 0 1 0-32 64 64 0 0 1 64 64v144a48 48 0 0 0 48 48h144a16 16 0 0 1 0 32z" fill="#0D182D" p-id="5442"></path><path d="M208 752a48 48 0 1 1 48-48 48 48 0 0 1-48 48z m0-64a16 16 0 1 0 16 16 16 16 0 0 0-16-16zM368 752a48 48 0 1 1 48-48 48 48 0 0 1-48 48z m0-64a16 16 0 1 0 16 16 16 16 0 0 0-16-16zM800 832H576a16 16 0 0 1-16-16v-80a16 16 0 0 1 16-16h224a16 16 0 0 1 16 16v80a16 16 0 0 1-16 16z m-208-32h192v-48H592zM832 400H544a16 16 0 0 1 0-32h288a16 16 0 0 1 0 32zM832 480H544a16 16 0 0 1 0-32h288a16 16 0 0 1 0 32zM832 560H544a16 16 0 0 1 0-32h288a16 16 0 0 1 0 32zM832 640H544a16 16 0 0 1 0-32h288a16 16 0 0 1 0 32z" fill="#0D182D" p-id="5443"></path></svg>